<svg width="18" height="18" viewBox="0 0 18 18" fill="none" xmlns="http://www.w3.org/2000/svg">
<path d="M2 18C1.45 18 0.979167 17.8042 0.5875 17.4125C0.195833 17.0208 0 16.55 0 16V12H2V16H6V18H2ZM16 18H12V16H16V12H18V16C18 16.55 17.8042 17.0208 17.4125 17.4125C17.0208 17.8042 16.55 18 16 18ZM0 2C0 1.45 0.195833 0.979167 0.5875 0.5875C0.979167 0.195833 1.45 0 2 0H6V2H2V6H0V2ZM18 2V6H16V2H12V0H16C16.55 0 17.0208 0.195833 17.4125 0.5875C17.8042 0.979167 18 1.45 18 2ZM9.8875 14.6375C10.1292 14.3958 10.25 14.1 10.25 13.75C10.25 13.4 10.1292 13.1042 9.8875 12.8625C9.64583 12.6208 9.35 12.5 9 12.5C8.65 12.5 8.35417 12.6208 8.1125 12.8625C7.87083 13.1042 7.75 13.4 7.75 13.75C7.75 14.1 7.87083 14.3958 8.1125 14.6375C8.35417 14.8792 8.65 15 9 15C9.35 15 9.64583 14.8792 9.8875 14.6375ZM8.1 11.175H9.925C9.925 10.6083 9.99167 10.175 10.125 9.875C10.2583 9.575 10.55 9.2 11 8.75C11.5833 8.16667 11.9708 7.69583 12.1625 7.3375C12.3542 6.97917 12.45 6.55 12.45 6.05C12.45 5.15 12.125 4.41667 11.475 3.85C10.825 3.28333 10 3 9 3C8.16667 3 7.45 3.21667 6.85 3.65C6.25 4.08333 5.81667 4.7 5.55 5.5L7.2 6.175C7.31667 5.74167 7.5375 5.3875 7.8625 5.1125C8.1875 4.8375 8.56667 4.7 9 4.7C9.48333 4.7 9.87083 4.82917 10.1625 5.0875C10.4542 5.34583 10.6 5.69167 10.6 6.125C10.6 6.45833 10.5208 6.77083 10.3625 7.0625C10.2042 7.35417 9.93333 7.65833 9.55 7.975C9 8.45833 8.62083 8.925 8.4125 9.375C8.20417 9.825 8.1 10.425 8.1 11.175Z" fill="#00234B"/>
</svg>
