<svg xmlns="http://www.w3.org/2000/svg" version="1.1" width="3300" height="2000"><g id="Notes"><style>
    text {
      font-family: monospace;
      text-anchor: middle;
    }
    text.emphasis {
      font-weight:bold;
    }
    text.lanchor {
      text-anchor: start;
    }
  </style><rect height="2200" id="artboard" fill="white" width="3300" x="0" y="0"/><line id="" style="fill:none;stroke:black;stroke-width:0.5;" x1="263" x2="3036" y1="292" y2="292"/><text class="lanchor emphasis" transform="matrix(1 0 0 1 263 322)">Weight/Scale Variations</text><text transform="matrix(1 0 0 1 559.711 322)">Ultralight</text><text transform="matrix(1 0 0 1 856.422 322)">Thin</text><text transform="matrix(1 0 0 1 1153.13 322)">Light</text><text transform="matrix(1 0 0 1 1449.84 322)">Regular</text><text transform="matrix(1 0 0 1 1746.56 322)">Medium</text><text transform="matrix(1 0 0 1 2043.27 322)">Semibold</text><text transform="matrix(1 0 0 1 2339.98 322)">Bold</text><text transform="matrix(1 0 0 1 2636.69 322)">Heavy</text><text transform="matrix(1 0 0 1 2933.4 322)">Black</text><text id="template-version" style="text-anchor: end;" transform="matrix(1 0 0 1 3036 1933)">Template v.1.0</text><text class="lanchor" transform="matrix(1 0 0 1 263 726)">Small</text><text class="lanchor" transform="matrix(1 0 0 1 263 1156)">Medium</text><text class="lanchor" transform="matrix(1 0 0 1 263 1586)">Large</text></g><g id="Guides"><g id="H-reference" style="fill:#27AAE1;stroke:none;" transform="matrix(1 0 0 1 339 696)"><path d="M 54.9316 0 L 57.666 0 L 30.5664 -70.459 L 28.0762 -70.459 L 0.976562 0 L 3.66211 0 L 12.9395 -24.4629 L 45.7031 -24.4629 Z M 29.1992 -67.0898 L 29.4434 -67.0898 L 44.8242 -26.709 L 13.8184 -26.709 Z"/></g><line id="Baseline-S" style="fill:none;stroke:#27AAE1;opacity:1;stroke-width:0.577;" x1="263" x2="3036" y1="696" y2="696"/><line id="Capline-S" style="fill:none;stroke:#27AAE1;opacity:1;stroke-width:0.577;" x1="263" x2="3036" y1="625.541" y2="625.541"/><g id="H-reference" style="fill:#27AAE1;stroke:none;" transform="matrix(1 0 0 1 339 1126)"><path d="M 54.9316 0 L 57.666 0 L 30.5664 -70.459 L 28.0762 -70.459 L 0.976562 0 L 3.66211 0 L 12.9395 -24.4629 L 45.7031 -24.4629 Z M 29.1992 -67.0898 L 29.4434 -67.0898 L 44.8242 -26.709 L 13.8184 -26.709 Z"/></g><line id="Baseline-M" style="fill:none;stroke:#27AAE1;opacity:1;stroke-width:0.577;" x1="263" x2="3036" y1="1126" y2="1126"/><line id="Capline-M" style="fill:none;stroke:#27AAE1;opacity:1;stroke-width:0.577;" x1="263" x2="3036" y1="1055.54" y2="1055.54"/><g id="H-reference" style="fill:#27AAE1;stroke:none;" transform="matrix(1 0 0 1 339 1556)"><path d="M 54.9316 0 L 57.666 0 L 30.5664 -70.459 L 28.0762 -70.459 L 0.976562 0 L 3.66211 0 L 12.9395 -24.4629 L 45.7031 -24.4629 Z M 29.1992 -67.0898 L 29.4434 -67.0898 L 44.8242 -26.709 L 13.8184 -26.709 Z"/></g><line id="Baseline-L" style="fill:none;stroke:#27AAE1;opacity:1;stroke-width:0.577;" x1="263" x2="3036" y1="1556" y2="1556"/><line id="Capline-L" style="fill:none;stroke:#27AAE1;opacity:1;stroke-width:0.577;" x1="263" x2="3036" y1="1485.54" y2="1485.54"/><rect height="119.336" id="left-margin" style="fill:darkred;stroke:none;opacity:0.4;" width="12.4512" x="1394.06" y="1030.79"/><rect height="119.336" id="right-margin" style="fill:darkgreen;stroke:none;opacity:0.4;" width="12.4512" x="1502.5112" y="1030.79"/><rect x="1406.5112" y="1045" width="96" height="96" fill="none" stroke="blue" stroke-dasharray="5"/><rect x="1394.06" y="1030.79" width="120.9024" height="119.336" fill="none" stroke="blue"/></g><g id="Symbols"><g id="Bold-L" transform="matrix(1 0 0 1 2266 1556)"><path d="M31.766 33.301 H15.319 V19.273 H31.766 Q37.249 19.273 42.812 17.257 Q48.375 15.241 51.761 11.533 Q56.76 15.564 63.855 17.176 Q70.95 18.789 77.4 18.789 Q83.85 18.789 90.945 17.176 Q98.04 15.564 102.877 11.533 Q106.586 15.241 112.069 17.257 Q117.551 19.273 123.195 19.273 H139.643 V33.301 H123.195 Q118.196 33.301 113.036 31.85 Q107.876 30.399 102.716 27.335 Q97.234 30.399 90.542 31.931 Q83.85 33.463 77.4 33.463 Q70.95 33.463 64.258 31.85 Q57.566 30.238 52.084 27.335 Q46.924 30.399 41.764 31.85 Q36.604 33.301 31.766 33.301 Z M67.564 6.856 Q61.598 6.534 52.89 -2.496 Q46.44 3.47 38.377 6.131 Q30.315 8.791 20.963 8.146 L12.9 -27.329 Q12.094 -30.07 13.545 -32.65 Q14.996 -35.23 17.899 -36.359 L24.51 -38.455 V-72.156 Q24.51 -78.606 28.944 -83.041 Q33.379 -87.475 39.829 -87.475 H54.503 V-104.084 H100.297 V-87.475 H114.971 Q121.421 -87.475 125.856 -83.041 Q130.29 -78.606 130.29 -72.156 V-38.455 L136.901 -36.359 Q139.804 -35.23 141.255 -32.65 Q142.706 -30.07 142.061 -27.329 L133.838 8.146 Q124.485 8.791 116.422 6.131 Q108.36 3.47 101.91 -2.496 Q93.203 6.534 87.236 6.856 Q81.27 7.179 77.4 7.179 Q73.53 7.179 67.564 6.856 Z M77.4 -6.85 Q82.56 -6.85 87.559 -8.221 Q92.558 -9.591 96.428 -13.139 L102.071 -18.46 L106.586 -14.429 Q109.972 -11.365 113.843 -9.269 Q117.713 -7.172 122.389 -6.044 L127.226 -24.749 L77.4 -41.196 L27.574 -24.749 L32.411 -6.044 Q36.926 -7.172 40.796 -9.188 Q44.666 -11.204 48.053 -14.429 L52.729 -18.46 L58.373 -13.139 Q62.242 -9.591 67.241 -8.221 Q72.24 -6.85 77.4 -6.85 Z M38.539 -43.131  77.4 -56.031  116.261 -43.131 V-73.446 H38.539 V-43.131 Z"/></g><g id="Semibold-L" transform="matrix(1 0 0 1 1970.27 1556)"><path d="M30.434 31.548 H17.072 V19.413 H30.434 Q36.338 19.413 42.215 17.502 Q48.094 15.591 52.603 11.882 Q57.882 15.704 64.485 17.352 Q71.09 18.998 77.4 18.998 Q83.71 18.998 90.315 17.352 Q96.918 15.704 102.107 11.882 Q106.867 15.591 112.735 17.502 Q118.603 19.413 124.527 19.413 H137.82 V31.548 H124.527 Q118.967 31.548 113.317 30.097 Q107.667 28.646 102.086 25.582 Q96.323 28.646 89.945 30.142 Q83.569 31.64 77.4 31.64 Q71.231 31.64 64.855 30.062 Q58.477 28.485 52.785 25.582 Q47.204 28.577 41.519 30.062 Q35.833 31.548 30.434 31.548 Z M66.548 4.718 Q60.406 3.099 53.03 -4.599 Q47.07 1.087 39.85 3.957 Q32.629 6.829 24.608 6.814 L15.074 -30.413 Q14.337 -32.805 15.578 -34.998 Q16.818 -37.192 19.302 -38.112 L26.893 -40.417 V-72.787 Q26.893 -78.185 30.626 -81.918 Q34.361 -85.653 39.759 -85.653 H57.307 V-102.262 H97.493 V-85.653 H115.041 Q120.439 -85.653 124.174 -81.918 Q127.907 -78.185 127.907 -72.787 V-40.417 L135.498 -38.112 Q137.982 -37.192 139.222 -34.998 Q140.463 -32.805 139.818 -30.413 L130.192 6.814 Q122.171 6.829 114.95 3.957 Q107.73 1.087 101.77 -4.599 Q94.394 3.099 88.252 4.718 Q82.112 6.337 77.4 6.337 Q72.688 6.337 66.548 4.718 Z M77.469 -5.799 Q82.629 -5.799 87.314 -7.835 Q91.996 -9.872 95.657 -13.629 L101.721 -20.002 L106.796 -15.059 Q109.832 -12.136 113.281 -9.97 Q116.73 -7.803 120.776 -6.394 L126.876 -28.114 L77.4 -43.86 L27.924 -28.114 L34.024 -6.394 Q37.978 -7.803 41.427 -9.923 Q44.876 -12.045 47.912 -15.059 L53.079 -20.002 L59.143 -13.629 Q62.873 -9.872 67.591 -7.835 Q72.309 -5.799 77.469 -5.799 Z M39.029 -44.394  77.4 -56.662  115.771 -44.323 V-73.516 H39.029 V-44.394 Z"/></g><g id="Medium-L" transform="matrix(1 0 0 1 1674.31 1556)"><path d="M29.435 30.234 H18.386 V19.518 H29.435 Q35.654 19.518 41.769 17.686 Q47.885 15.854 53.233 12.145 Q58.722 15.809 64.96 17.483 Q71.195 19.156 77.4 19.156 Q83.605 19.156 89.84 17.483 Q96.078 15.809 101.528 12.145 Q107.076 15.854 113.235 17.686 Q119.391 19.518 125.527 19.518 H136.453 V30.234 H125.527 Q119.546 30.234 113.526 28.783 Q107.509 27.332 101.612 24.268 Q95.639 27.332 89.499 28.802 Q83.36 30.273 77.4 30.273 Q71.44 30.273 65.301 28.722 Q59.161 27.171 53.311 24.268 Q47.414 27.209 41.335 28.722 Q35.254 30.234 29.435 30.234 Z M65.785 3.114 Q59.513 0.522 53.135 -6.178 Q47.545 -0.702 40.954 2.327 Q34.364 5.357 27.342 5.815 L16.704 -32.727 Q16.02 -34.854 17.104 -36.76 Q18.186 -38.665 20.353 -39.426 L28.682 -41.89 V-73.261 Q28.682 -77.869 31.889 -81.078 Q35.096 -84.285 39.706 -84.285 H59.409 V-100.894 H95.391 V-84.285 H115.094 Q119.704 -84.285 122.911 -81.078 Q126.118 -77.869 126.118 -73.261 V-41.89 L134.447 -39.426 Q136.614 -38.665 137.696 -36.76 Q138.78 -34.854 138.135 -32.727 L127.458 5.815 Q120.436 5.357 113.846 2.327 Q107.255 -0.702 101.665 -6.178 Q95.287 0.522 89.015 3.114 Q82.742 5.707 77.4 5.707 Q72.058 5.707 65.785 3.114 Z M77.523 -5.01 Q82.683 -5.01 87.13 -7.547 Q91.575 -10.081 95.078 -13.998 L101.459 -21.159 L106.954 -15.533 Q109.727 -12.715 112.86 -10.496 Q115.995 -8.277 119.567 -6.656 L126.614 -30.638 L77.4 -45.858 L28.187 -30.638 L35.233 -6.656 Q38.766 -8.277 41.901 -10.477 Q45.034 -12.676 47.807 -15.533 L53.342 -21.159 L59.722 -13.998 Q63.347 -10.081 67.854 -7.547 Q72.363 -5.01 77.523 -5.01 Z M39.398 -45.34  77.4 -57.136  115.402 -45.216 V-73.569 H39.398 V-45.34 Z"/></g><g id="Regular-L" transform="matrix(1 0 0 1 1378.56 1556)"><path d="M28.703 29.27 H19.35 V19.595 H28.703 Q35.153 19.595 41.441 17.821 Q47.73 16.048 53.696 12.339 Q59.34 15.886 65.306 17.579 Q71.273 19.273 77.4 19.273 Q83.528 19.273 89.494 17.579 Q95.46 15.886 101.104 12.339 Q107.231 16.048 113.601 17.821 Q119.97 19.595 126.259 19.595 H135.45 V29.27 H126.259 Q119.97 29.27 113.681 27.819 Q107.392 26.368 101.265 23.304 Q95.138 26.368 89.171 27.819 Q83.205 29.27 77.4 29.27 Q71.595 29.27 65.629 27.738 Q59.663 26.206 53.696 23.304 Q47.569 26.206 41.199 27.738 Q34.83 29.27 28.703 29.27 Z M65.226 1.938 Q58.856 -1.367 53.212 -7.334 Q47.891 -2.012 41.764 1.132 Q35.636 4.276 29.348 5.083 L17.899 -34.424 Q17.254 -36.359 18.221 -38.052 Q19.189 -39.745 21.124 -40.39 L29.992 -42.97 V-73.607 Q29.992 -77.639 32.814 -80.461 Q35.636 -83.282 39.668 -83.282 H60.953 V-99.891 H93.847 V-83.282 H115.133 Q119.164 -83.282 121.986 -80.461 Q124.808 -77.639 124.808 -73.607 V-42.97 L133.676 -40.39 Q135.611 -39.745 136.579 -38.052 Q137.546 -36.359 136.901 -34.424 L125.453 5.083 Q119.164 4.276 113.036 1.132 Q106.909 -2.012 101.588 -7.334 Q95.944 -1.367 89.574 1.938 Q83.205 5.244 77.4 5.244 Q71.595 5.244 65.226 1.938 Z M77.561 -4.431 Q82.721 -4.431 86.994 -7.334 Q91.267 -10.236 94.654 -14.267 L101.265 -22.007 L107.07 -15.88 Q109.65 -13.139 112.553 -10.881 Q115.455 -8.624 118.68 -6.85 L126.42 -32.489 L77.4 -47.324 L28.38 -32.489 L36.12 -6.85 Q39.345 -8.624 42.248 -10.881 Q45.15 -13.139 47.73 -15.88 L53.535 -22.007 L60.146 -14.267 Q63.694 -10.236 68.047 -7.334 Q72.401 -4.431 77.561 -4.431 Z M39.668 -46.034  77.4 -57.482  115.133 -45.872 V-73.607 H39.668 V-46.034 Z"/></g><g id="Light-L" transform="matrix(1 0 0 1 1082.77 1556)"><path d="M29.075 26.045 H22.575 V18.726 H29.075 Q35.338 18.726 41.535 16.86 Q47.73 14.993 53.262 11.284 Q58.719 14.895 64.872 16.618 Q71.024 18.342 77.276 18.342 Q83.528 18.342 89.679 16.618 Q95.832 14.895 101.289 11.284 Q106.983 14.993 113.198 16.86 Q119.412 18.726 125.577 18.726 H132.225 V26.045 H125.577 Q119.473 26.045 113.402 24.594 Q107.331 23.143 101.389 20.079 Q95.447 23.08 89.326 24.563 Q83.205 26.045 77.276 26.045 Q71.347 26.045 65.226 24.513 Q59.105 22.981 53.262 20.079 Q47.32 23.043 41.199 24.544 Q35.078 26.045 29.075 26.045 Z M66.063 0.419 Q60.22 -2.546 53.151 -10.249 Q47.519 -4.37 42.167 -1.163 Q36.815 2.043 31.023 3.285 L21 -32.563 Q20.479 -34.316 21.364 -35.948 Q22.249 -37.581 24.039 -38.22 L32.287 -40.8 V-71.685 Q32.287 -75.578 34.993 -78.282 Q37.697 -80.988 41.59 -80.988 H63.186 V-96.603 H91.49 V-80.988 H113.086 Q116.979 -80.988 119.683 -78.282 Q122.389 -75.578 122.389 -71.685 V-40.8 L130.637 -38.22 Q132.427 -37.581 133.312 -35.948 Q134.197 -34.316 133.676 -32.563 L123.655 3.285 Q117.861 2.043 112.509 -1.163 Q107.157 -4.37 101.526 -10.249 Q94.455 -2.546 88.613 0.419 Q82.771 3.383 77.339 3.383 Q71.905 3.383 66.063 0.419 Z M77.5 -3.935 Q83.218 -3.935 87.707 -7.364 Q92.198 -10.794 96.018 -15.259 L101.389 -21.511 L106.325 -16.19 Q109.037 -13.118 112.028 -10.499 Q115.021 -7.879 118.556 -6.044 L125.923 -32.055 L77.276 -47.2 L28.752 -32.055 L36.12 -6.044 Q39.655 -7.879 42.647 -10.499 Q45.639 -13.118 48.351 -16.19 L53.225 -21.511 L58.658 -15.259 Q62.578 -10.857 67.178 -7.395 Q71.78 -3.935 77.5 -3.935 Z M39.482 -43.181  77.276 -54.94  115.071 -43.081 V-73.669 H39.482 V-43.181 Z"/></g><g id="Thin-L" transform="matrix(1 0 0 1 787.282 1556)"><path d="M29.447 22.82 H25.8 V17.858 H29.447 Q35.525 17.858 41.627 15.899 Q47.73 13.938 52.829 10.23 Q58.1 13.901 64.439 15.657 Q70.776 17.412 77.152 17.412 Q83.528 17.412 89.866 15.657 Q96.205 13.901 101.476 10.23 Q106.735 13.938 112.794 15.899 Q118.854 17.858 124.895 17.858 H129 V22.82 H124.895 Q118.978 22.82 113.123 21.369 Q107.268 19.918 101.513 16.854 Q95.758 19.793 89.481 21.307 Q83.205 22.82 77.152 22.82 Q71.098 22.82 64.823 21.288 Q58.547 19.756 52.829 16.854 Q47.072 19.88 41.199 21.349 Q35.327 22.82 29.447 22.82 Z M66.899 -1.101 Q61.585 -3.725 53.088 -13.163 Q47.146 -6.726 42.57 -3.457 Q37.994 -0.189 32.697 1.485 L24.1 -30.702 Q23.704 -32.273 24.507 -33.845 Q25.311 -35.415 26.953 -36.049 L34.582 -38.629 V-69.762 Q34.582 -73.517 37.17 -76.105 Q39.758 -78.693 43.513 -78.693 H65.418 V-93.317 H89.134 V-78.693 H111.04 Q114.794 -78.693 117.382 -76.105 Q119.97 -73.517 119.97 -69.762 V-38.629 L127.599 -36.049 Q129.24 -35.415 130.045 -33.845 Q130.848 -32.273 130.451 -30.702 L121.855 1.485 Q116.56 -0.189 111.982 -3.457 Q107.405 -6.726 101.463 -13.163 Q92.967 -3.725 87.652 -1.101 Q82.337 1.522 77.276 1.522 Q72.216 1.522 66.899 -1.101 Z M77.437 -3.44 Q83.713 -3.44 88.421 -7.395 Q93.128 -11.352 97.382 -16.252 L101.513 -21.016 L105.582 -16.501 Q108.424 -13.097 111.506 -10.117 Q114.587 -7.135 118.432 -5.237 L125.428 -31.621 L77.152 -47.075 L29.125 -31.621 L36.12 -5.237 Q39.966 -7.135 43.046 -10.117 Q46.127 -13.097 48.97 -16.501 L52.914 -21.016 L57.17 -16.252 Q61.46 -11.476 66.311 -7.458 Q71.161 -3.44 77.437 -3.44 Z M39.295 -40.329  77.152 -52.397  115.008 -40.29 V-73.732 H39.295 V-40.329 Z"/></g><g id="Ultralight-L" transform="matrix(1 0 0 1 491.205 1556)"><path d="M29.67 20.885 H27.735 V17.338 H29.67 Q35.636 17.338 41.683 15.322 Q47.73 13.306 52.568 9.598 Q57.727 13.306 64.177 15.08 Q70.627 16.854 77.078 16.854 Q83.528 16.854 89.978 15.08 Q96.428 13.306 101.588 9.598 Q106.586 13.306 112.553 15.322 Q118.519 17.338 124.485 17.338 H127.065 V20.885 H124.485 Q118.68 20.885 112.956 19.434 Q107.231 17.983 101.588 14.919 Q95.944 17.821 89.574 19.353 Q83.205 20.885 77.078 20.885 Q70.95 20.885 64.581 19.353 Q58.211 17.821 52.568 14.919 Q46.924 17.983 41.199 19.434 Q35.475 20.885 29.67 20.885 Z M67.403 -2.012 Q62.404 -4.431 53.051 -14.912 Q46.924 -8.14 42.812 -4.834 Q38.7 -1.529 33.701 0.406 L25.961 -29.586 Q25.639 -31.047 26.393 -32.582 Q27.148 -34.117 28.703 -34.746 L35.959 -37.326 V-68.609 Q35.959 -72.282 38.476 -74.799 Q40.995 -77.316 44.666 -77.316 H66.758 V-91.345 H87.72 V-77.316 H109.811 Q113.485 -77.316 116.002 -74.799 Q118.519 -72.282 118.519 -68.609 V-37.326 L125.775 -34.746 Q127.329 -34.117 128.084 -32.582 Q128.839 -31.047 128.516 -29.586 L120.776 0.406 Q115.778 -1.529 111.666 -4.834 Q107.554 -8.14 101.426 -14.912 Q92.074 -4.431 87.075 -2.012 Q82.076 0.406 77.239 0.406 Q72.401 0.406 67.403 -2.012 Z M77.4 -3.141 Q84.011 -3.141 88.849 -7.414 Q93.686 -11.687 98.201 -16.847 L101.588 -20.717 L105.135 -16.686 Q108.057 -13.086 111.192 -9.886 Q114.326 -6.689 118.358 -4.754 L125.13 -31.36 L77.078 -47.001 L29.348 -31.36 L36.12 -4.754 Q40.151 -6.689 43.286 -9.886 Q46.421 -13.086 49.343 -16.686 L52.729 -20.717 L56.276 -16.847 Q60.791 -11.849 65.79 -7.495 Q70.789 -3.141 77.4 -3.141 Z M39.184 -38.616  77.078 -50.871  114.971 -38.616 V-73.769 H39.184 V-38.616 Z"/></g><g id="Bold-M" transform="matrix(1 0 0 1 2281.8 1126)"><path d="M22.125 19.02 H10.75 V4.52 H22.125 Q27.25 4.52 31.938 2.958 Q36.625 1.395 40.625 -1.48 Q44.625 1.395 49.5 2.833 Q54.375 4.27 60 4.27 Q65.625 4.27 70.5 2.833 Q75.375 1.395 79.25 -1.48 Q83.25 1.395 88 2.958 Q92.75 4.52 97.875 4.52 H109.25 V19.02 H97.875 Q93.125 19.02 88.438 17.895 Q83.75 16.77 79.25 14.52 Q74.875 16.77 70 17.895 Q65.125 19.02 60 19.02 Q54.875 19.02 50 17.895 Q45.125 16.77 40.75 14.52 Q36.25 16.77 31.562 17.895 Q26.875 19.02 22.125 19.02 Z M49.312 -5.105 Q44.125 -6.98 40.875 -10.23 Q36.5 -6.23 30.25 -4.417 Q24 -2.605 16.125 -2.98 L8.875 -32.855 Q8.125 -35.855 9.688 -38.542 Q11.25 -41.23 14.25 -42.23 L19.375 -43.73 V-63.73 Q19.375 -70.355 23.938 -74.917 Q28.5 -79.48 35.125 -79.48 H40.875 V-89.48 H79.125 V-79.48 H84.875 Q91.5 -79.48 96.062 -74.917 Q100.625 -70.355 100.625 -63.73 V-43.73 L105.75 -42.23 Q108.75 -41.23 110.312 -38.542 Q111.875 -35.855 111.125 -32.855 L103.875 -2.98 Q96 -2.605 89.75 -4.417 Q83.5 -6.23 79.125 -10.23 Q75.875 -6.98 70.688 -5.105 Q65.5 -3.23 60 -3.23 Q54.5 -3.23 49.312 -5.105 Z M60 -17.73 Q63.875 -17.73 67.688 -18.667 Q71.5 -19.605 74.375 -22.105 L79.125 -26.23 L83 -23.105 Q85.125 -21.355 87.625 -20.355 Q90.125 -19.355 92.875 -18.73 L95.625 -30.23 L60 -40.98 L24.375 -30.23 L27.125 -18.73 Q29.875 -19.355 32.375 -20.355 Q34.875 -21.355 37 -23.105 L40.875 -26.23 L45.625 -22.105 Q48.5 -19.605 52.312 -18.667 Q56.125 -17.73 60 -17.73 Z M33.875 -48.105  60 -56.23  86.125 -48.23 V-64.98 H33.875 V-48.105 Z"/></g><g id="Semibold-M" transform="matrix(1 0 0 1 1985.97 1126)"><path d="M20.766 17.173 H12.598 V4.629 H20.766 Q26.271 4.629 31.285 3.175 Q36.299 1.721 41.495 -1.154 Q45.82 1.504 50.125 2.995 Q54.429 4.488 60 4.488 Q65.571 4.488 69.875 2.995 Q74.18 1.504 78.435 -1.154 Q83.576 1.721 88.679 3.175 Q93.782 4.629 99.287 4.629 H107.403 V17.173 H99.287 Q93.94 17.173 88.764 16.048 Q83.588 14.923 78.597 12.673 Q73.951 14.976 69.403 16.048 Q64.854 17.118 60 17.118 Q55.146 17.118 50.625 16.048 Q46.104 14.976 41.456 12.673 Q36.468 14.923 31.291 16.048 Q26.114 17.173 20.766 17.173 Z M48.252 -7.332 Q42.875 -10.566 41.038 -12.404 Q37.097 -8.675 31.745 -6.619 Q26.391 -4.561 19.875 -4.339 L11.158 -36.061 Q10.461 -38.681 11.78 -40.961 Q13.098 -43.241 15.717 -44.077 L21.82 -45.795 V-64.382 Q21.82 -69.92 25.676 -73.776 Q29.532 -77.632 35.071 -77.632 H43.755 V-87.632 H76.245 V-77.632 H84.929 Q90.468 -77.632 94.324 -73.776 Q98.18 -69.92 98.18 -64.382 V-45.795 L104.282 -44.077 Q106.903 -43.241 108.22 -40.961 Q109.539 -38.681 108.843 -36.061 L100.125 -4.339 Q93.609 -4.561 88.255 -6.619 Q82.903 -8.675 78.963 -12.404 Q77.125 -10.566 71.748 -7.332 Q66.37 -4.1 60 -4.1 Q53.63 -4.1 48.252 -7.332 Z M60.109 -16.642 Q63.984 -16.642 67.442 -18.287 Q70.903 -19.931 73.614 -22.594 L78.799 -27.806 L83.218 -23.757 Q85.016 -22.17 87.055 -21.089 Q89.093 -20.007 91.245 -19.11 L95.299 -33.707 L60 -43.751 L24.755 -33.707 L28.81 -19.11 Q30.962 -20.007 33 -21.089 Q35.038 -22.17 36.837 -23.757 L41.255 -27.806 L46.44 -22.594 Q49.153 -19.876 52.666 -18.26 Q56.179 -16.642 60.109 -16.642 Z M34.364 -49.409  60 -56.882  85.636 -49.48 V-65.089 H34.364 V-49.409 Z"/></g><g id="Medium-M" transform="matrix(1 0 0 1 1689.91 1126)"><path d="M19.747 15.786 H13.984 V4.71 H19.747 Q25.538 4.71 30.796 3.338 Q36.054 1.966 42.146 -0.909 Q46.718 1.585 50.594 3.118 Q54.47 4.65 60 4.65 Q65.53 4.65 69.406 3.118 Q73.282 1.585 77.824 -0.909 Q83.821 1.966 89.189 3.338 Q94.558 4.71 100.347 4.71 H106.016 V15.786 H100.347 Q94.551 15.786 89.009 14.661 Q83.465 13.536 78.109 11.286 Q73.259 13.631 68.954 14.661 Q64.65 15.691 60 15.691 Q55.35 15.691 51.094 14.661 Q46.837 13.631 41.986 11.286 Q36.63 13.536 31.087 14.661 Q25.544 15.786 19.747 15.786 Z M47.458 -9.005 Q41.938 -13.257 41.16 -14.034 Q37.546 -10.51 32.865 -8.27 Q28.185 -6.029 22.688 -5.357 L12.87 -38.466 Q12.215 -40.8 13.349 -42.775 Q14.484 -44.749 16.817 -45.464 L23.655 -47.344 V-64.871 Q23.655 -69.594 26.981 -72.92 Q30.308 -76.246 35.03 -76.246 H45.916 V-86.246 H74.084 V-76.246 H84.97 Q89.692 -76.246 93.019 -72.92 Q96.345 -69.594 96.345 -64.871 V-47.344 L103.183 -45.464 Q105.516 -44.749 106.651 -42.775 Q107.785 -40.8 107.13 -38.466 L97.312 -5.357 Q91.815 -6.029 87.135 -8.27 Q82.454 -10.51 78.84 -14.034 Q78.062 -13.257 72.543 -9.005 Q67.021 -4.751 60 -4.751 Q52.979 -4.751 47.458 -9.005 Z M60.19 -15.827 Q64.065 -15.827 67.26 -18.001 Q70.454 -20.176 73.044 -22.961 L78.554 -28.989 L83.38 -24.246 Q84.935 -22.781 86.626 -21.639 Q88.317 -20.496 90.021 -19.396 L95.054 -36.317 L60 -45.83 L25.041 -36.317 L30.074 -19.396 Q31.777 -20.496 33.469 -21.639 Q35.16 -22.781 36.715 -24.246 L41.541 -28.989 L47.051 -22.961 Q49.641 -20.08 52.931 -17.954 Q56.22 -15.827 60.19 -15.827 Z M34.731 -50.387  60 -57.371  85.269 -50.417 V-65.17 H34.731 V-50.387 Z"/></g><g id="Regular-M" transform="matrix(1 0 0 1 1394.06 1126)"><path d="M19 14.77 H15 V4.77 H19 Q25 4.77 30.438 3.458 Q35.875 2.145 42.625 -0.73 Q47.375 1.645 50.938 3.208 Q54.5 4.77 60 4.77 Q65.5 4.77 69.062 3.208 Q72.625 1.645 77.375 -0.73 Q84 2.145 89.562 3.458 Q95.125 4.77 101.125 4.77 H105 V14.77 H101.125 Q95 14.77 89.188 13.645 Q83.375 12.52 77.75 10.27 Q72.75 12.645 68.625 13.645 Q64.5 14.645 60 14.645 Q55.5 14.645 51.438 13.645 Q47.375 12.645 42.375 10.27 Q36.75 12.52 30.938 13.645 Q25.125 14.77 19 14.77 Z M46.875 -10.23 Q41.25 -15.23 41.25 -15.23 Q37.875 -11.855 33.688 -9.48 Q29.5 -7.105 24.75 -6.105 L14.125 -40.23 Q13.5 -42.355 14.5 -44.105 Q15.5 -45.855 17.625 -46.48 L25 -48.48 V-65.23 Q25 -69.355 27.938 -72.292 Q30.875 -75.23 35 -75.23 H47.5 V-85.23 H72.5 V-75.23 H85 Q89.125 -75.23 92.062 -72.292 Q95 -69.355 95 -65.23 V-48.48 L102.375 -46.48 Q104.5 -45.855 105.5 -44.105 Q106.5 -42.355 105.875 -40.23 L95.25 -6.105 Q90.5 -7.105 86.312 -9.48 Q82.125 -11.855 78.75 -15.23 Q78.75 -15.23 73.125 -10.23 Q67.5 -5.23 60 -5.23 Q52.5 -5.23 46.875 -10.23 Z M60.25 -15.23 Q64.125 -15.23 67.125 -17.792 Q70.125 -20.355 72.625 -23.23 L78.375 -29.855 L83.5 -24.605 Q84.875 -23.23 86.312 -22.042 Q87.75 -20.855 89.125 -19.605 L94.875 -38.23 L60 -47.355 L25.25 -38.23 L31 -19.605 Q32.375 -20.855 33.812 -22.042 Q35.25 -23.23 36.625 -24.605 L41.75 -29.855 L47.5 -23.23 Q50 -20.23 53.125 -17.73 Q56.25 -15.23 60.25 -15.23 Z M35 -51.105  60 -57.73  85 -51.105 V-65.23 H35 V-51.105 Z"/></g><g id="Light-M" transform="matrix(1 0 0 1 1098.18 1126)"><path d="M20.154 12.27 H17.5 V4.77 H20.154 Q25.769 4.77 30.966 3.361 Q36.164 1.953 42 -0.922 Q46.51 1.645 50.505 3.16 Q54.5 4.674 59.904 4.674 Q65.308 4.674 69.302 3.16 Q73.299 1.645 77.808 -0.922 Q83.567 1.953 88.841 3.361 Q94.115 4.77 99.731 4.77 H102.5 V12.27 H99.731 Q94.086 12.27 88.683 11.145 Q83.279 10.02 78.039 7.721 Q73.279 10.049 68.89 11.121 Q64.5 12.193 59.904 12.193 Q55.307 12.193 50.956 11.121 Q46.606 10.049 41.846 7.721 Q36.606 10.02 31.203 11.145 Q25.799 12.27 20.154 12.27 Z M48.534 -10.374 Q43.51 -14.461 41.203 -17.057 Q37.394 -13.009 33.64 -10.61 Q29.885 -8.211 25.519 -6.922 L16.481 -37.249 Q15.953 -39.085 16.832 -40.667 Q17.711 -42.249 19.549 -42.826 L26.299 -44.826 V-63.691 Q26.299 -67.431 28.948 -70.081 Q31.596 -72.73 35.336 -72.73 H49.182 V-82.73 H70.721 V-72.73 H84.567 Q88.308 -72.73 90.956 -70.081 Q93.606 -67.431 93.606 -63.691 V-44.826 L100.355 -42.826 Q102.192 -42.249 103.073 -40.667 Q103.951 -39.085 103.422 -37.249 L94.385 -6.922 Q90.019 -8.211 86.265 -10.61 Q82.51 -13.009 78.703 -17.057 Q76.394 -14.461 71.37 -10.374 Q66.346 -6.287 59.953 -6.287 Q53.557 -6.287 48.534 -10.374 Z M60.154 -13.787 Q64.51 -13.787 67.774 -16.686 Q71.039 -19.586 73.875 -22.845 L78.519 -28.172 L82.779 -23.644 Q84.442 -21.836 86.144 -20.215 Q87.846 -18.595 89.799 -17.249 L95.308 -36.499 L59.904 -46.537 L24.672 -36.499 L30.183 -17.249 Q32.135 -18.595 33.836 -20.215 Q35.539 -21.836 37.203 -23.644 L41.461 -28.172 L46.106 -22.845 Q48.943 -19.509 52.331 -16.649 Q55.721 -13.787 60.154 -13.787 Z M33.701 -46.874  59.904 -54.364  86.106 -46.874 V-65.23 H33.701 V-46.874 Z"/></g><g id="Thin-M" transform="matrix(1 0 0 1 802.565 1126)"><path d="M21.308 9.77 H20 V4.77 H21.308 Q26.539 4.77 31.495 3.265 Q36.453 1.76 41.375 -1.115 Q45.644 1.645 50.072 3.111 Q54.5 4.578 59.807 4.578 Q65.115 4.578 69.544 3.111 Q73.971 1.645 78.24 -1.115 Q83.135 1.76 88.12 3.265 Q93.106 4.77 98.336 4.77 H100 V9.77 H98.336 Q93.172 9.77 88.177 8.645 Q83.183 7.52 78.328 5.174 Q73.808 7.453 69.154 8.598 Q64.5 9.741 59.807 9.741 Q55.115 9.741 50.476 8.598 Q45.836 7.453 41.318 5.174 Q36.461 7.52 31.466 8.645 Q26.471 9.77 21.308 9.77 Z M50.193 -10.519 Q45.769 -13.691 41.154 -18.884 Q36.914 -14.162 33.591 -11.74 Q30.269 -9.316 26.289 -7.74 L18.836 -34.269 Q18.404 -35.816 19.164 -37.23 Q19.922 -38.644 21.471 -39.172 L27.596 -41.172 V-62.152 Q27.596 -65.509 29.956 -67.87 Q32.318 -70.23 35.672 -70.23 H50.865 V-80.23 H68.942 V-70.23 H84.135 Q87.49 -70.23 89.851 -67.87 Q92.211 -65.509 92.211 -62.152 V-41.172 L98.336 -39.172 Q99.885 -38.644 100.644 -37.23 Q101.404 -35.816 100.971 -34.269 L93.519 -7.74 Q89.539 -9.316 86.216 -11.74 Q82.894 -14.162 78.654 -18.884 Q74.039 -13.691 69.615 -10.519 Q65.192 -7.345 59.904 -7.345 Q54.615 -7.345 50.193 -10.519 Z M60.057 -12.345 Q64.894 -12.345 68.422 -15.581 Q71.953 -18.816 75.125 -22.461 L78.664 -26.49 L82.058 -22.682 Q84.01 -20.441 85.976 -18.389 Q87.942 -16.336 90.471 -14.894 L95.74 -34.769 L59.807 -45.72 L24.096 -34.769 L29.365 -14.894 Q31.894 -16.336 33.86 -18.389 Q35.828 -20.441 37.779 -22.682 L41.172 -26.49 L44.711 -22.461 Q47.885 -18.787 51.539 -15.566 Q55.193 -12.345 60.057 -12.345 Z M32.404 -42.644  59.807 -50.999  87.211 -42.644 V-65.23 H32.404 V-42.644 Z"/></g><g id="Ultralight-M" transform="matrix(1 0 0 1 506.415 1126)"><path d="M22 8.27 H21.5 V4.77 H22 Q27 4.77 31.812 3.208 Q36.625 1.645 41 -1.23 Q45.125 1.645 49.812 3.083 Q54.5 4.52 59.75 4.52 Q65 4.52 69.688 3.083 Q74.375 1.645 78.5 -1.23 Q82.875 1.645 87.688 3.208 Q92.5 4.77 97.5 4.77 H98.5 V8.27 H97.5 Q92.625 8.27 87.875 7.145 Q83.125 6.02 78.5 3.645 Q74.125 5.895 69.312 7.083 Q64.5 8.27 59.75 8.27 Q55 8.27 50.188 7.083 Q45.375 5.895 41 3.645 Q36.375 6.02 31.625 7.145 Q26.875 8.27 22 8.27 Z M51.188 -10.605 Q47.125 -13.23 41.125 -19.98 Q36.625 -14.855 33.562 -12.417 Q30.5 -9.98 26.75 -8.23 L20.25 -32.48 Q19.875 -33.855 20.562 -35.167 Q21.25 -36.48 22.625 -36.98 L28.375 -38.98 V-61.23 Q28.375 -64.355 30.562 -66.542 Q32.75 -68.73 35.875 -68.73 H51.875 V-78.73 H67.875 V-68.73 H83.875 Q87 -68.73 89.188 -66.542 Q91.375 -64.355 91.375 -61.23 V-38.98 L97.125 -36.98 Q98.5 -36.48 99.188 -35.167 Q99.875 -33.855 99.5 -32.48 L93 -8.23 Q89.25 -9.98 86.188 -12.417 Q83.125 -14.855 78.625 -19.98 Q72.625 -13.23 68.562 -10.605 Q64.5 -7.98 59.875 -7.98 Q55.25 -7.98 51.188 -10.605 Z M60 -11.48 Q65.125 -11.48 68.812 -14.917 Q72.5 -18.355 75.875 -22.23 L78.75 -25.48 L81.625 -22.105 Q83.75 -19.605 85.875 -17.292 Q88 -14.98 90.875 -13.48 L96 -33.73 L59.75 -45.23 L23.75 -33.73 L28.875 -13.48 Q31.75 -14.98 33.875 -17.292 Q36 -19.605 38.125 -22.105 L41 -25.48 L43.875 -22.23 Q47.25 -18.355 51.062 -14.917 Q54.875 -11.48 60 -11.48 Z M31.625 -40.105  59.75 -48.98  87.875 -40.105 V-65.23 H31.625 V-40.105 Z"/></g><g id="Bold-S" transform="matrix(1 0 0 1 2294.23 696)"><path d="M23.769 5.995 H10.06 V-4.656 H23.769 Q26.925 -4.656 29.292 -6.579 Q31.659 -8.503 32.744 -10.376 Q35.505 -8.009 39.401 -6.431 Q43.296 -4.853 47.34 -4.853 Q51.384 -4.853 55.279 -6.431 Q59.175 -8.009 61.838 -10.376 Q63.021 -8.503 65.339 -6.579 Q67.657 -4.656 70.813 -4.656 H84.62 V5.995 H70.813 Q68.544 5.995 66.769 5.157 Q64.994 4.319 61.542 1.853 Q57.696 4.22 54.441 5.157 Q51.186 6.094 47.34 6.094 Q43.494 6.094 40.19 5.157 Q36.886 4.22 33.039 1.853 Q29.686 4.22 27.812 5.108 Q25.938 5.995 23.769 5.995 Z M44.184 -8.453 Q42.113 -6.925 37.576 -11.363 L34.026 -14.716 L30.968 -11.659 Q28.207 -9.193 24.065 -8.601 Q19.922 -8.009 14.695 -9.094 H12.131 L8.482 -33.159 Q8.087 -35.23 9.271 -37.202 Q10.454 -39.175 12.525 -39.865 L16.865 -41.147 V-57.716 Q16.865 -62.648 20.218 -66.001 Q23.571 -69.354 28.503 -69.354 H32.645 V-76.455 H62.035 V-69.354 H66.177 Q71.109 -69.354 74.462 -66.001 Q77.815 -62.648 77.815 -57.716 V-41.147 L82.155 -39.865 Q84.226 -39.175 85.409 -37.202 Q86.593 -35.23 86.198 -33.159 L82.549 -9.094 H79.985 Q74.758 -8.009 70.615 -8.601 Q66.473 -9.193 63.712 -11.659 L60.654 -14.716 L57.104 -11.363 Q52.567 -6.925 50.496 -8.453 Q48.425 -9.982 47.34 -9.982 Q46.255 -9.982 44.184 -8.453 Z M47.143 -20.633 Q48.425 -20.633 50.249 -19.844 Q52.074 -19.055 53.356 -19.647 L61.049 -25.762 L64.599 -22.409 Q66.276 -20.831 68.396 -19.894 Q70.517 -18.957 73.18 -18.661 L74.955 -30.989 L47.34 -39.471 L19.626 -30.989 L21.402 -18.661 Q24.065 -18.957 26.185 -19.894 Q28.305 -20.831 29.982 -22.409 L33.532 -25.762 L41.225 -19.647 Q42.507 -19.154 44.233 -19.894 Q45.959 -20.633 47.143 -20.633 Z M27.516 -44.402  47.34 -50.615  67.164 -44.501 V-58.703 H27.516 V-44.402 Z"/></g><g id="Semibold-S" transform="matrix(1 0 0 1 1998.1 696)"><path d="M22.697 4.538 H11.517 V-4.57 H22.697 Q26.152 -4.57 28.777 -6.408 Q31.401 -8.245 33.43 -10.119 Q36.448 -7.924 39.894 -6.303 Q43.339 -4.682 47.34 -4.682 Q51.341 -4.682 54.786 -6.303 Q58.232 -7.924 61.195 -10.119 Q63.279 -8.245 65.875 -6.408 Q68.471 -4.57 71.927 -4.57 H83.163 V4.538 H71.927 Q69.187 4.538 67.027 3.699 Q64.866 2.861 61.027 0.395 Q56.967 2.805 53.97 3.699 Q50.972 4.593 47.34 4.593 Q43.708 4.593 40.683 3.699 Q37.658 2.805 33.597 0.395 Q29.858 2.762 27.598 3.65 Q25.338 4.538 22.697 4.538 Z M43.348 -10.211 Q41.127 -9.754 37.704 -13.078 L34.154 -16.431 L31.096 -13.374 Q28.678 -11.122 25.244 -10.338 Q21.809 -9.553 17.654 -10.166 H15.09 L10.283 -35.689 Q9.931 -37.46 10.922 -39.111 Q11.912 -40.762 13.683 -41.323 L18.794 -42.777 V-58.231 Q18.794 -62.305 21.59 -65.101 Q24.386 -67.897 28.46 -67.897 H34.917 V-74.998 H59.763 V-67.897 H66.22 Q70.294 -67.897 73.09 -65.101 Q75.886 -62.305 75.886 -58.231 V-42.777 L80.997 -41.323 Q82.768 -40.762 83.758 -39.111 Q84.749 -37.46 84.397 -35.689 L79.59 -10.166 H77.026 Q72.871 -9.553 69.436 -10.338 Q66.002 -11.122 63.584 -13.374 L60.526 -16.431 L56.976 -13.078 Q53.553 -9.754 51.332 -10.211 Q49.111 -10.668 47.34 -10.668 Q45.569 -10.668 43.348 -10.211 Z M47.229 -19.775 Q48.511 -19.775 50.056 -19.545 Q51.603 -19.313 52.755 -20.033 L60.791 -27.006 L64.771 -22.924 Q66.19 -21.474 67.947 -20.473 Q69.702 -19.472 71.894 -18.961 L74.698 -33.733 L47.34 -41.657 L19.926 -33.733 L22.731 -18.961 Q24.923 -19.472 26.678 -20.473 Q28.434 -21.474 29.854 -22.924 L33.832 -27.006 L41.868 -20.033 Q43.022 -19.368 44.512 -19.572 Q46.002 -19.775 47.229 -19.775 Z M27.902 -45.431  47.34 -51.13  66.778 -45.487 V-58.789 H27.902 V-45.431 Z"/></g><g id="Medium-S" transform="matrix(1 0 0 1 1701.85 696)"><path d="M21.893 3.444 H12.611 V-4.506 H21.893 Q25.573 -4.506 28.391 -6.28 Q31.208 -8.052 33.944 -9.926 Q37.156 -7.86 40.264 -6.207 Q43.371 -4.554 47.34 -4.554 Q51.309 -4.554 54.416 -6.207 Q57.524 -7.86 60.713 -9.926 Q63.472 -8.052 66.277 -6.28 Q69.083 -4.506 72.764 -4.506 H82.069 V3.444 H72.764 Q69.67 3.444 67.22 2.606 Q64.769 1.767 60.642 -0.698 Q56.42 1.744 53.616 2.606 Q50.812 3.467 47.34 3.467 Q43.868 3.467 41.053 2.606 Q38.237 1.744 34.015 -0.698 Q29.986 1.669 27.437 2.556 Q24.888 3.444 21.893 3.444 Z M42.72 -11.53 Q40.387 -11.878 37.801 -14.364 L34.25 -17.717 L31.193 -14.66 Q29.032 -12.57 26.128 -11.641 Q23.224 -10.711 19.873 -10.97 H17.309 L11.634 -37.586 Q11.314 -39.132 12.159 -40.542 Q13.006 -41.951 14.551 -42.417 L20.242 -43.999 V-58.617 Q20.242 -62.047 22.62 -64.425 Q24.997 -66.803 28.428 -66.803 H36.622 V-73.904 H58.058 V-66.803 H66.252 Q69.683 -66.803 72.06 -64.425 Q74.438 -62.047 74.438 -58.617 V-43.999 L80.129 -42.417 Q81.674 -41.951 82.521 -40.542 Q83.366 -39.132 83.046 -37.586 L77.371 -10.97 H74.807 Q71.456 -10.711 68.552 -11.641 Q65.648 -12.57 63.487 -14.66 L60.43 -17.717 L56.879 -14.364 Q54.293 -11.878 51.96 -11.53 Q49.625 -11.182 47.34 -11.182 Q45.055 -11.182 42.72 -11.53 Z M47.293 -19.132 Q48.575 -19.132 49.912 -19.319 Q51.249 -19.506 52.306 -20.323 L60.598 -27.939 L64.899 -23.309 Q66.126 -21.956 67.608 -20.907 Q69.091 -19.857 70.928 -19.187 L74.504 -35.792 L47.34 -43.298 L20.152 -35.792 L23.728 -19.187 Q25.566 -19.857 27.048 -20.907 Q28.53 -21.956 29.757 -23.309 L34.058 -27.939 L42.351 -20.323 Q43.408 -19.529 44.722 -19.331 Q46.034 -19.132 47.293 -19.132 Z M28.192 -46.203  47.34 -51.516  66.488 -46.227 V-58.853 H28.192 V-46.203 Z"/></g><g id="Regular-S" transform="matrix(1 0 0 1 1405.73 696)"><path d="M21.303 2.642 H13.413 V-4.459 H21.303 Q25.149 -4.459 28.108 -6.185 Q31.067 -7.911 34.322 -9.785 Q37.675 -7.812 40.535 -6.136 Q43.395 -4.459 47.34 -4.459 Q51.285 -4.459 54.145 -6.136 Q57.005 -7.812 60.358 -9.785 Q63.613 -7.911 66.572 -6.185 Q69.531 -4.459 73.377 -4.459 H81.267 V2.642 H73.377 Q70.024 2.642 67.361 1.804 Q64.698 0.965 60.358 -1.5 Q56.019 0.965 53.356 1.804 Q50.693 2.642 47.34 2.642 Q43.987 2.642 41.324 1.804 Q38.661 0.965 34.322 -1.5 Q30.081 0.867 27.319 1.754 Q24.558 2.642 21.303 2.642 Z M42.261 -12.497 Q39.845 -13.434 37.872 -15.308 L34.322 -18.661 L31.264 -15.604 Q29.292 -13.631 26.777 -12.596 Q24.262 -11.56 21.5 -11.56 H18.936 L12.624 -38.978 Q12.328 -40.358 13.068 -41.591 Q13.808 -42.824 15.188 -43.219 L21.303 -44.895 V-58.9 Q21.303 -61.859 23.374 -63.93 Q25.445 -66.001 28.404 -66.001 H37.872 V-73.102 H56.808 V-66.001 H66.276 Q69.235 -66.001 71.306 -63.93 Q73.377 -61.859 73.377 -58.9 V-44.895 L79.492 -43.219 Q80.873 -42.824 81.612 -41.591 Q82.352 -40.358 82.056 -38.978 L75.744 -11.56 H73.18 Q70.418 -11.56 67.903 -12.596 Q65.388 -13.631 63.416 -15.604 L60.358 -18.661 L56.808 -15.308 Q54.836 -13.434 52.419 -12.497 Q50.003 -11.56 47.34 -11.56 Q44.677 -11.56 42.261 -12.497 Z M47.34 -18.661 Q48.622 -18.661 49.806 -19.154 Q50.989 -19.647 51.975 -20.535 L60.457 -28.622 L64.994 -23.592 Q66.079 -22.31 67.361 -21.225 Q68.643 -20.14 70.221 -19.351 L74.363 -37.301 L47.34 -44.501 L20.317 -37.301 L24.459 -19.351 Q26.037 -20.14 27.319 -21.225 Q28.601 -22.31 29.686 -23.592 L34.223 -28.622 L42.705 -20.535 Q43.691 -19.647 44.874 -19.154 Q46.058 -18.661 47.34 -18.661 Z M28.404 -46.769  47.34 -51.799  66.276 -46.769 V-58.9 H28.404 V-46.769 Z"/></g><g id="Light-S" transform="matrix(1 0 0 1 1109.75 696)"><path d="M22.213 0.67 H15.386 V-4.459 H22.213 Q25.756 -4.459 28.525 -6.261 Q31.295 -8.063 33.828 -9.937 Q36.992 -7.812 40.194 -6.173 Q43.395 -4.535 47.264 -4.535 Q51.133 -4.535 54.334 -6.173 Q57.537 -7.812 60.7 -9.937 Q63.272 -8.063 66.003 -6.261 Q68.734 -4.459 72.277 -4.459 H79.294 V0.67 H72.277 Q69.303 0.67 66.962 -0.169 Q64.622 -1.007 60.586 -3.511 Q56.436 -1.083 53.565 -0.188 Q50.693 0.707 47.264 0.707 Q43.835 0.707 40.944 -0.188 Q38.054 -1.083 33.904 -3.511 Q29.967 -1.106 27.528 -0.218 Q25.089 0.67 22.213 0.67 Z M43.57 -12.61 Q41.628 -12.827 37.835 -16.75 L34.284 -20.103 L31.227 -17.046 Q28.912 -14.541 26.739 -13.487 Q24.566 -12.433 22.107 -12.205 H19.543 L14.483 -36.626 Q14.263 -37.778 14.908 -38.879 Q15.552 -39.979 16.706 -40.336 L22.328 -42.012 V-57.686 Q22.328 -60.341 24.171 -62.185 Q26.014 -64.028 28.669 -64.028 H39.199 V-71.129 H55.405 V-64.028 H65.935 Q68.59 -64.028 70.433 -62.185 Q72.277 -60.341 72.277 -57.686 V-42.012 L77.898 -40.336 Q79.052 -39.979 79.697 -38.879 Q80.341 -37.778 80.121 -36.626 L75.062 -12.205 H72.497 Q70.039 -12.433 67.866 -13.487 Q65.692 -14.541 63.378 -17.046 L60.321 -20.103 L56.771 -16.75 Q52.976 -12.827 51.034 -12.61 Q49.093 -12.394 47.303 -12.394 Q45.511 -12.394 43.57 -12.61 Z M47.264 -17.523 Q48.926 -17.523 50.317 -18.281 Q51.71 -19.041 52.962 -20.231 L60.571 -27.295 L64.425 -22.834 Q65.738 -21.21 67.228 -19.783 Q68.719 -18.357 70.753 -17.492 L74.704 -35.935 L47.264 -43.856 L19.861 -35.935 L23.814 -17.492 Q25.848 -18.357 27.338 -19.783 Q28.829 -21.21 30.142 -22.834 L33.995 -27.295 L41.605 -20.231 Q42.857 -19.078 44.248 -18.301 Q45.641 -17.523 47.264 -17.523 Z M27.379 -43.431  47.264 -49.143  67.149 -43.431 V-58.9 H27.379 V-43.431 Z"/></g><g id="Thin-S" transform="matrix(1 0 0 1 814.015 696)"><path d="M23.124 -1.303 H17.358 V-4.459 H23.124 Q26.363 -4.459 28.942 -6.337 Q31.523 -8.215 33.335 -10.089 Q36.309 -7.812 39.852 -6.212 Q43.395 -4.611 47.188 -4.611 Q50.981 -4.611 54.525 -6.212 Q58.067 -7.812 61.041 -10.089 Q62.931 -8.215 65.434 -6.337 Q67.938 -4.459 71.177 -4.459 H77.322 V-1.303 H71.177 Q68.582 -1.303 66.564 -2.141 Q64.546 -2.98 60.814 -5.521 Q56.853 -3.132 53.773 -2.179 Q50.693 -1.227 47.188 -1.227 Q43.683 -1.227 40.565 -2.179 Q37.447 -3.132 33.487 -5.521 Q29.853 -3.078 27.736 -2.191 Q25.62 -1.303 23.124 -1.303 Z M44.878 -12.725 Q43.41 -12.22 37.796 -18.191 L34.246 -21.544 L31.188 -18.486 Q28.533 -15.452 26.701 -14.379 Q24.868 -13.305 22.714 -12.85 H20.15 L16.341 -34.274 Q16.197 -35.199 16.748 -36.167 Q17.297 -37.134 18.223 -37.453 L23.351 -39.13 V-56.472 Q23.351 -58.824 24.967 -60.441 Q26.583 -62.056 28.935 -62.056 H40.527 V-69.157 H54.001 V-62.056 H65.594 Q67.945 -62.056 69.561 -60.441 Q71.177 -58.824 71.177 -56.472 V-39.13 L76.305 -37.453 Q77.231 -37.134 77.781 -36.167 Q78.331 -35.199 78.187 -34.274 L74.378 -12.85 H71.814 Q69.66 -13.305 67.827 -14.379 Q65.995 -15.452 63.34 -18.486 L60.283 -21.544 L56.732 -18.191 Q51.118 -12.22 49.65 -12.725 Q48.182 -13.229 47.264 -13.229 Q46.346 -13.229 44.878 -12.725 Z M47.188 -16.385 Q49.229 -16.385 50.829 -17.409 Q52.431 -18.433 53.948 -19.928 L60.685 -25.967 L63.856 -22.075 Q65.396 -20.11 67.096 -18.342 Q68.795 -16.575 71.283 -15.634 L75.046 -34.57 L47.188 -43.211 L19.406 -34.57 L23.169 -15.634 Q25.657 -16.575 27.357 -18.342 Q29.057 -20.11 30.596 -22.075 L33.767 -25.967 L40.504 -19.928 Q42.022 -18.509 43.623 -17.447 Q45.224 -16.385 47.188 -16.385 Z M26.356 -40.093  47.188 -46.488  68.021 -40.093 V-58.9 H26.356 V-40.093 Z"/></g><g id="Ultralight-S" transform="matrix(1 0 0 1 517.792 696)"><path d="M23.67 -2.486 H18.541 V-4.459 H23.67 Q26.727 -4.459 29.193 -6.382 Q31.659 -8.305 33.039 -10.179 Q35.9 -7.812 39.647 -6.234 Q43.395 -4.656 47.143 -4.656 Q50.891 -4.656 54.638 -6.234 Q58.386 -7.812 61.246 -10.179 Q62.726 -8.305 65.093 -6.382 Q67.46 -4.459 70.517 -4.459 H76.139 V-2.486 H70.517 Q68.15 -2.486 66.325 -3.325 Q64.501 -4.163 60.95 -6.727 Q57.104 -4.36 53.899 -3.374 Q50.693 -2.388 47.143 -2.388 Q43.592 -2.388 40.338 -3.374 Q37.083 -4.36 33.237 -6.727 Q29.785 -4.262 27.862 -3.374 Q25.938 -2.486 23.67 -2.486 Z M45.663 -12.793 Q44.48 -11.856 37.773 -19.055 L34.223 -22.409 L31.166 -19.351 Q28.305 -15.998 26.678 -14.913 Q25.051 -13.828 23.078 -13.237 H20.514 L17.457 -32.863 Q17.358 -33.652 17.851 -34.54 Q18.344 -35.427 19.133 -35.723 L23.966 -37.4 V-55.744 Q23.966 -57.914 25.445 -59.393 Q26.925 -60.872 29.094 -60.872 H41.324 V-67.973 H53.159 V-60.872 H65.388 Q67.558 -60.872 69.038 -59.393 Q70.517 -57.914 70.517 -55.744 V-37.4 L75.35 -35.723 Q76.139 -35.427 76.632 -34.54 Q77.125 -33.652 77.026 -32.863 L73.969 -13.237 H71.404 Q69.432 -13.828 67.805 -14.913 Q66.177 -15.998 63.317 -19.351 L60.26 -22.409 L56.709 -19.055 Q50.003 -11.856 48.819 -12.793 Q47.636 -13.73 47.241 -13.73 Q46.847 -13.73 45.663 -12.793 Z M47.143 -15.702 Q49.411 -15.702 51.137 -16.886 Q52.863 -18.069 54.54 -19.746 L60.753 -25.17 L63.515 -21.62 Q65.191 -19.45 67.016 -17.477 Q68.84 -15.505 71.602 -14.519 L75.251 -33.751 L47.143 -42.824 L19.133 -33.751 L22.782 -14.519 Q25.544 -15.505 27.368 -17.477 Q29.193 -19.45 30.87 -21.62 L33.631 -25.17 L39.845 -19.746 Q41.521 -18.168 43.247 -16.935 Q44.973 -15.702 47.143 -15.702 Z M25.741 -38.09  47.143 -44.895  68.544 -38.09 V-58.9 H25.741 V-38.09 Z"/></g></g></svg>