<svg width="39" height="13" viewBox="0 0 39 13" fill="none" xmlns="http://www.w3.org/2000/svg">
<rect y="3.5" width="6" height="6" rx="3" fill="#F25F22"/>
<path d="M12.2969 7.52319V11H10.6862V4.99512H12.2071L12.2328 6.49419H12.1362C12.2937 5.99332 12.5329 5.60573 12.8539 5.33141C13.1749 5.05708 13.5889 4.91992 14.0958 4.91992C14.512 4.91992 14.8748 5.01043 15.1839 5.19143C15.4931 5.37244 15.7333 5.63179 15.9043 5.96949C16.0754 6.30719 16.1609 6.71093 16.1609 7.18072V11H14.5502V7.46143C14.5502 7.08847 14.454 6.79595 14.2616 6.58386C14.0692 6.37178 13.8032 6.26574 13.4635 6.26574C13.237 6.26574 13.0357 6.31535 12.8598 6.41457C12.6838 6.51379 12.546 6.65676 12.4463 6.84349C12.3467 7.03023 12.2969 7.25679 12.2969 7.52319ZM19.3269 11.0752C18.9126 11.0752 18.55 10.9847 18.239 10.8037C17.928 10.6227 17.687 10.3629 17.5159 10.0244C17.3449 9.68587 17.2593 9.28254 17.2593 8.81439V4.99512H18.8701V8.53369C18.8701 8.90665 18.9667 9.19917 19.1599 9.41126C19.3531 9.62334 19.6195 9.72938 19.9592 9.72938C20.1877 9.72938 20.389 9.67977 20.5632 9.58055C20.7374 9.48133 20.8743 9.33746 20.9739 9.14894C21.0735 8.96042 21.1233 8.73474 21.1233 8.47192V4.99512H22.7365V11H21.2131L21.1899 9.50092H21.284C21.1249 10.0051 20.884 10.3935 20.5614 10.6662C20.2388 10.9389 19.8273 11.0752 19.3269 11.0752ZM25.5238 11L23.3145 4.99512H25.0252L26.0338 8.11236C26.1583 8.50051 26.266 8.89357 26.357 9.29154C26.4481 9.6895 26.5416 10.101 26.6377 10.5259H26.2919C26.3861 10.101 26.4782 9.68998 26.5683 9.29299C26.6583 8.89599 26.7638 8.50245 26.8847 8.11236L27.8817 4.99512H29.575L27.3598 11H25.5238ZM32.6703 11.1173C32.0574 11.1173 31.5289 10.9918 31.085 10.7407C30.641 10.4897 30.3001 10.1332 30.062 9.6713C29.824 9.20939 29.705 8.66178 29.705 8.02849C29.705 7.41068 29.8233 6.86868 30.0598 6.4025C30.2963 5.93633 30.6308 5.57269 31.0633 5.31158C31.4958 5.05048 32.0045 4.91992 32.5894 4.91992C32.9816 4.91992 33.348 4.98241 33.6887 5.10738C34.0294 5.23234 34.3283 5.4208 34.5856 5.67274C34.8429 5.92468 35.0438 6.24125 35.1884 6.62246C35.333 7.00366 35.4053 7.45147 35.4053 7.96587V8.41801H30.3661V7.40437H34.6203L33.8675 7.67614C33.8675 7.36348 33.8198 7.09178 33.7243 6.86104C33.6288 6.63031 33.4873 6.45131 33.2999 6.32405C33.1125 6.1968 32.8795 6.13317 32.601 6.13317C32.3225 6.13317 32.0863 6.19762 31.8923 6.32652C31.6983 6.45543 31.5506 6.63031 31.4494 6.85116C31.3481 7.07202 31.2975 7.32313 31.2975 7.6045V8.31811C31.2975 8.66544 31.3556 8.95723 31.4719 9.19348C31.5882 9.42973 31.7517 9.60722 31.9625 9.72595C32.1733 9.84469 32.4178 9.90406 32.696 9.90406C32.884 9.90406 33.0548 9.87729 33.2085 9.82376C33.3623 9.77023 33.4944 9.69097 33.6051 9.58599C33.7157 9.481 33.7999 9.3516 33.8577 9.19777L35.3144 9.46719C35.2174 9.79891 35.0493 10.0885 34.8099 10.3361C34.5704 10.5836 34.2705 10.7757 33.91 10.9123C33.5495 11.049 33.1362 11.1173 32.6703 11.1173ZM36.2322 11V4.99512H37.8429V11H36.2322ZM37.0371 4.21235C36.7946 4.21235 36.5867 4.13126 36.4136 3.96909C36.2405 3.80692 36.154 3.61232 36.154 3.38528C36.154 3.15361 36.2405 2.95764 36.4136 2.79736C36.5867 2.63709 36.7946 2.55695 37.0371 2.55695C37.2808 2.55695 37.4893 2.63698 37.6627 2.79705C37.836 2.95712 37.9227 3.15315 37.9227 3.38513C37.9227 3.61248 37.836 3.80718 37.6627 3.96925C37.4893 4.13132 37.2808 4.21235 37.0371 4.21235Z" fill="#000E24"/>
</svg>
