<svg xmlns="http://www.w3.org/2000/svg" version="1.1" width="3300" height="2000"><g id="Notes"><style>
    text {
      font-family: monospace;
      text-anchor: middle;
    }
    text.emphasis {
      font-weight:bold;
    }
    text.lanchor {
      text-anchor: start;
    }
  </style><rect height="2200" id="artboard" fill="white" width="3300" x="0" y="0"/><line id="" style="fill:none;stroke:black;stroke-width:0.5;" x1="263" x2="3036" y1="292" y2="292"/><text class="lanchor emphasis" transform="matrix(1 0 0 1 263 322)">Weight/Scale Variations</text><text transform="matrix(1 0 0 1 559.711 322)">Ultralight</text><text transform="matrix(1 0 0 1 856.422 322)">Thin</text><text transform="matrix(1 0 0 1 1153.13 322)">Light</text><text transform="matrix(1 0 0 1 1449.84 322)">Regular</text><text transform="matrix(1 0 0 1 1746.56 322)">Medium</text><text transform="matrix(1 0 0 1 2043.27 322)">Semibold</text><text transform="matrix(1 0 0 1 2339.98 322)">Bold</text><text transform="matrix(1 0 0 1 2636.69 322)">Heavy</text><text transform="matrix(1 0 0 1 2933.4 322)">Black</text><text id="template-version" style="text-anchor: end;" transform="matrix(1 0 0 1 3036 1933)">Template v.1.0</text><text class="lanchor" transform="matrix(1 0 0 1 263 726)">Small</text><text class="lanchor" transform="matrix(1 0 0 1 263 1156)">Medium</text><text class="lanchor" transform="matrix(1 0 0 1 263 1586)">Large</text></g><g id="Guides"><g id="H-reference" style="fill:#27AAE1;stroke:none;" transform="matrix(1 0 0 1 339 696)"><path d="M 54.9316 0 L 57.666 0 L 30.5664 -70.459 L 28.0762 -70.459 L 0.976562 0 L 3.66211 0 L 12.9395 -24.4629 L 45.7031 -24.4629 Z M 29.1992 -67.0898 L 29.4434 -67.0898 L 44.8242 -26.709 L 13.8184 -26.709 Z"/></g><line id="Baseline-S" style="fill:none;stroke:#27AAE1;opacity:1;stroke-width:0.577;" x1="263" x2="3036" y1="696" y2="696"/><line id="Capline-S" style="fill:none;stroke:#27AAE1;opacity:1;stroke-width:0.577;" x1="263" x2="3036" y1="625.541" y2="625.541"/><g id="H-reference" style="fill:#27AAE1;stroke:none;" transform="matrix(1 0 0 1 339 1126)"><path d="M 54.9316 0 L 57.666 0 L 30.5664 -70.459 L 28.0762 -70.459 L 0.976562 0 L 3.66211 0 L 12.9395 -24.4629 L 45.7031 -24.4629 Z M 29.1992 -67.0898 L 29.4434 -67.0898 L 44.8242 -26.709 L 13.8184 -26.709 Z"/></g><line id="Baseline-M" style="fill:none;stroke:#27AAE1;opacity:1;stroke-width:0.577;" x1="263" x2="3036" y1="1126" y2="1126"/><line id="Capline-M" style="fill:none;stroke:#27AAE1;opacity:1;stroke-width:0.577;" x1="263" x2="3036" y1="1055.54" y2="1055.54"/><g id="H-reference" style="fill:#27AAE1;stroke:none;" transform="matrix(1 0 0 1 339 1556)"><path d="M 54.9316 0 L 57.666 0 L 30.5664 -70.459 L 28.0762 -70.459 L 0.976562 0 L 3.66211 0 L 12.9395 -24.4629 L 45.7031 -24.4629 Z M 29.1992 -67.0898 L 29.4434 -67.0898 L 44.8242 -26.709 L 13.8184 -26.709 Z"/></g><line id="Baseline-L" style="fill:none;stroke:#27AAE1;opacity:1;stroke-width:0.577;" x1="263" x2="3036" y1="1556" y2="1556"/><line id="Capline-L" style="fill:none;stroke:#27AAE1;opacity:1;stroke-width:0.577;" x1="263" x2="3036" y1="1485.54" y2="1485.54"/><rect height="119.336" id="left-margin" style="fill:darkred;stroke:none;opacity:0.4;" width="12.4512" x="1394.06" y="1030.79"/><rect height="119.336" id="right-margin" style="fill:darkgreen;stroke:none;opacity:0.4;" width="12.4512" x="1502.5112" y="1030.79"/><rect x="1406.5112" y="1045" width="96" height="96" fill="none" stroke="blue" stroke-dasharray="5"/><rect x="1394.06" y="1030.79" width="120.9024" height="119.336" fill="none" stroke="blue"/></g><g id="Symbols"><g id="Bold-L" transform="matrix(1 0 0 1 2266 1556)"><path d="M26.848 5.969 Q22.091 2.019 20.801 -4.109 H3.709 V-69.092 Q3.709 -75.299 8.161 -79.693 Q12.611 -84.089 18.705 -84.089 H111.263 L151.091 -44.099 V-4.109 H133.999 Q132.709 2.019 127.913 5.969 Q123.119 9.92 116.787 9.92 Q110.456 9.92 105.699 5.969 Q100.943 2.019 99.653 -4.109 H55.148 Q53.858 2.019 49.143 5.969 Q44.429 9.92 38.016 9.92 Q31.605 9.92 26.848 5.969 Z M95.782 -48.13 H124.969 L104.329 -68.931 H95.782 V-48.13 Z M57.405 -48.13 H86.108 V-68.931 H57.405 V-48.13 Z M18.866 -48.13 H47.73 V-68.931 H18.866 V-48.13 Z M44.908 -0.964 Q47.73 -3.786 47.73 -7.817 Q47.73 -11.849 44.908 -14.671 Q42.086 -17.492 38.055 -17.492 Q34.024 -17.492 31.202 -14.671 Q28.38 -11.849 28.38 -7.817 Q28.38 -3.786 31.202 -0.964 Q34.024 1.858 38.055 1.858 Q42.086 1.858 44.908 -0.964 Z M123.598 -0.964 Q126.42 -3.786 126.42 -7.817 Q126.42 -11.849 123.598 -14.671 Q120.776 -17.492 116.745 -17.492 Q112.714 -17.492 109.892 -14.671 Q107.07 -11.849 107.07 -7.817 Q107.07 -3.786 109.892 -0.964 Q112.714 1.858 116.745 1.858 Q120.776 1.858 123.598 -0.964 Z M18.866 -17.492 H23.059 Q25.8 -21.685 29.912 -23.62 Q34.024 -25.555 38.055 -25.555 Q42.086 -25.555 46.198 -23.62 Q50.31 -21.685 53.051 -17.492 H101.715 Q104.49 -21.685 108.602 -23.62 Q112.714 -25.555 116.745 -25.555 Q120.776 -25.555 124.888 -23.62 Q129 -21.685 131.741 -17.492 H135.934 V-38.455 H18.866 V-17.492 Z"/></g><g id="Semibold-L" transform="matrix(1 0 0 1 1970.27 1556)"><path d="M25.832 5.444 Q20.9 0.967 20.171 -5.721 H4.9 V-69.092 Q4.9 -74.633 8.854 -78.555 Q12.806 -82.476 18.284 -82.476 H110.982 L149.9 -43.468 V-5.721 H134.629 Q133.9 0.967 128.947 5.444 Q123.993 9.92 117.19 9.92 Q110.387 9.92 105.454 5.444 Q100.522 0.967 99.793 -5.721 H55.007 Q54.278 0.967 49.37 5.444 Q44.461 9.92 37.613 9.92 Q30.763 9.92 25.832 5.444 Z M96.203 -48.13 H126.301 L104.819 -69.702 H96.203 V-48.13 Z M56.984 -48.13 H86.528 V-69.702 H56.984 V-48.13 Z M17.675 -48.13 H47.309 V-69.702 H17.675 V-48.13 Z M44.487 -0.964 Q47.309 -3.786 47.309 -7.817 Q47.309 -11.849 44.487 -14.671 Q41.665 -17.492 37.634 -17.492 Q33.603 -17.492 30.781 -14.671 Q27.959 -11.849 27.959 -7.817 Q27.959 -3.786 30.781 -0.964 Q33.603 1.858 37.634 1.858 Q41.665 1.858 44.487 -0.964 Z M124.019 -0.964 Q126.841 -3.786 126.841 -7.817 Q126.841 -11.849 124.019 -14.671 Q121.197 -17.492 117.166 -17.492 Q113.135 -17.492 110.313 -14.671 Q107.491 -11.849 107.491 -7.817 Q107.491 -3.786 110.313 -0.964 Q113.135 1.858 117.166 1.858 Q121.197 1.858 124.019 -0.964 Z M17.675 -17.492 H22.638 Q25.379 -21.685 29.491 -23.62 Q33.603 -25.555 37.634 -25.555 Q41.665 -25.555 45.777 -23.62 Q49.889 -21.685 52.63 -17.492 H102.15 Q104.911 -21.685 109.023 -23.62 Q113.135 -25.555 117.166 -25.555 Q121.197 -25.555 125.309 -23.62 Q129.421 -21.685 132.162 -17.492 H137.125 V-38.455 H17.675 V-17.492 Z"/></g><g id="Medium-L" transform="matrix(1 0 0 1 1674.31 1556)"><path d="M25.07 5.049 Q20.006 0.179 19.697 -6.931 H5.794 V-69.092 Q5.794 -74.135 9.373 -77.7 Q12.953 -81.267 17.968 -81.267 H110.772 L149.006 -42.994 V-6.931 H135.103 Q134.794 0.179 129.722 5.049 Q124.649 9.92 117.492 9.92 Q110.334 9.92 105.27 5.049 Q100.206 0.179 99.898 -6.931 H54.902 Q54.594 0.179 49.541 5.049 Q44.487 9.92 37.31 9.92 Q30.133 9.92 25.07 5.049 Z M96.519 -48.13 H127.3 L105.188 -70.281 H96.519 V-48.13 Z M56.668 -48.13 H86.844 V-70.281 H56.668 V-48.13 Z M16.781 -48.13 H46.993 V-70.281 H16.781 V-48.13 Z M44.171 -0.964 Q46.993 -3.786 46.993 -7.817 Q46.993 -11.849 44.171 -14.671 Q41.349 -17.492 37.318 -17.492 Q33.287 -17.492 30.465 -14.671 Q27.643 -11.849 27.643 -7.817 Q27.643 -3.786 30.465 -0.964 Q33.287 1.858 37.318 1.858 Q41.349 1.858 44.171 -0.964 Z M124.335 -0.964 Q127.157 -3.786 127.157 -7.817 Q127.157 -11.849 124.335 -14.671 Q121.513 -17.492 117.482 -17.492 Q113.451 -17.492 110.629 -14.671 Q107.807 -11.849 107.807 -7.817 Q107.807 -3.786 110.629 -0.964 Q113.451 1.858 117.482 1.858 Q121.513 1.858 124.335 -0.964 Z M16.781 -17.492 H22.322 Q25.063 -21.685 29.175 -23.62 Q33.287 -25.555 37.318 -25.555 Q41.349 -25.555 45.461 -23.62 Q49.573 -21.685 52.314 -17.492 H102.476 Q105.227 -21.685 109.339 -23.62 Q113.451 -25.555 117.482 -25.555 Q121.513 -25.555 125.625 -23.62 Q129.737 -21.685 132.478 -17.492 H138.019 V-38.455 H16.781 V-17.492 Z"/></g><g id="Regular-L" transform="matrix(1 0 0 1 1378.56 1556)"><path d="M24.51 4.76 Q19.35 -0.4 19.35 -7.817 H6.45 V-69.092 Q6.45 -73.769 9.756 -77.074 Q13.061 -80.38 17.738 -80.38 H110.618 L148.35 -42.647 V-7.817 H135.45 Q135.45 -0.4 130.29 4.76 Q125.13 9.92 117.713 9.92 Q110.295 9.92 105.135 4.76 Q99.975 -0.4 99.975 -7.817 H54.825 Q54.825 -0.4 49.665 4.76 Q44.505 9.92 37.087 9.92 Q29.67 9.92 24.51 4.76 Z M96.75 -48.13 H128.032 L105.457 -70.705 H96.75 V-48.13 Z M56.438 -48.13 H87.075 V-70.705 H56.438 V-48.13 Z M16.125 -48.13 H46.763 V-70.705 H16.125 V-48.13 Z M43.941 -0.964 Q46.763 -3.786 46.763 -7.817 Q46.763 -11.849 43.941 -14.671 Q41.119 -17.492 37.087 -17.492 Q33.056 -17.492 30.234 -14.671 Q27.413 -11.849 27.413 -7.817 Q27.413 -3.786 30.234 -0.964 Q33.056 1.858 37.087 1.858 Q41.119 1.858 43.941 -0.964 Z M124.566 -0.964 Q127.388 -3.786 127.388 -7.817 Q127.388 -11.849 124.566 -14.671 Q121.744 -17.492 117.713 -17.492 Q113.681 -17.492 110.859 -14.671 Q108.038 -11.849 108.038 -7.817 Q108.038 -3.786 110.859 -0.964 Q113.681 1.858 117.713 1.858 Q121.744 1.858 124.566 -0.964 Z M16.125 -17.492 H22.091 Q24.832 -21.685 28.944 -23.62 Q33.056 -25.555 37.087 -25.555 Q41.119 -25.555 45.231 -23.62 Q49.343 -21.685 52.084 -17.492 H102.716 Q105.457 -21.685 109.569 -23.62 Q113.681 -25.555 117.713 -25.555 Q121.744 -25.555 125.856 -23.62 Q129.968 -21.685 132.709 -17.492 H138.675 V-38.455 H16.125 V-17.492 Z"/></g><g id="Light-L" transform="matrix(1 0 0 1 1082.77 1556)"><path d="M27.674 -0.437 Q23.133 -4.963 23.133 -11.476 H10.481 V-68.659 Q10.481 -72.184 12.968 -74.669 Q15.453 -77.155 18.978 -77.155 H108.199 L144.319 -42.027 V-11.476 H132.659 Q132.659 -4.963 128.131 -0.437 Q123.603 4.089 117.088 4.089 Q110.574 4.089 106.049 -0.437 Q101.526 -4.963 101.526 -11.476 H54.267 Q54.267 -4.989 49.723 -0.45 Q45.181 4.089 38.697 4.089 Q32.213 4.089 27.674 -0.437 Z M94.331 -46.269 H128.839 L104.527 -69.836 H94.331 V-46.269 Z M56.065 -46.269 H87.014 V-69.836 H56.065 V-46.269 Z M17.8 -46.269 H48.747 V-69.836 H17.8 V-46.269 Z M45.244 -4.931 Q47.941 -7.627 47.941 -11.475 Q47.941 -15.322 45.245 -18.02 Q42.551 -20.717 38.703 -20.717 Q34.854 -20.717 32.156 -18.023 Q29.459 -15.327 29.459 -11.479 Q29.459 -7.632 32.155 -4.934 Q34.849 -2.237 38.697 -2.237 Q42.546 -2.237 45.244 -4.931 Z M123.635 -4.931 Q126.333 -7.627 126.333 -11.475 Q126.333 -15.322 123.638 -18.02 Q120.942 -20.717 117.095 -20.717 Q113.247 -20.717 110.55 -18.023 Q107.852 -15.327 107.852 -11.479 Q107.852 -7.632 110.547 -4.934 Q113.241 -2.237 117.09 -2.237 Q120.938 -2.237 123.635 -4.931 Z M17.8 -18.795 H24.82 Q26.879 -22.677 30.742 -24.86 Q34.607 -27.043 38.7 -27.043 Q42.794 -27.043 46.564 -24.954 Q50.334 -22.864 52.642 -18.795 H103.235 Q105.272 -22.615 109.136 -24.829 Q112.999 -27.043 117.092 -27.043 Q121.186 -27.043 124.956 -24.923 Q128.727 -22.801 131.033 -18.795 H137 V-38.952 H17.8 V-18.795 Z"/></g><g id="Thin-L" transform="matrix(1 0 0 1 787.282 1556)"><path d="M30.836 -5.633 Q26.916 -9.527 26.916 -15.135 H14.513 V-68.225 Q14.513 -70.599 16.178 -72.264 Q17.844 -73.93 20.218 -73.93 H105.78 L140.287 -41.407 V-15.135 H129.868 Q129.868 -9.527 125.972 -5.633 Q122.076 -1.74 116.464 -1.74 Q110.853 -1.74 106.965 -5.633 Q103.076 -9.527 103.076 -15.135 H53.709 Q53.709 -9.578 49.781 -5.658 Q45.855 -1.74 40.304 -1.74 Q34.756 -1.74 30.836 -5.633 Z M91.913 -44.408 H129.645 L103.597 -68.968 H91.913 V-44.408 Z M55.693 -44.408 H86.951 V-68.968 H55.693 V-44.408 Z M19.474 -44.408 H50.732 V-68.968 H19.474 V-44.408 Z M46.545 -8.898 Q49.12 -11.467 49.12 -15.13 Q49.12 -18.795 46.551 -21.369 Q43.983 -23.942 40.317 -23.942 Q36.654 -23.942 34.08 -21.374 Q31.505 -18.805 31.505 -15.141 Q31.505 -11.476 34.074 -8.903 Q36.642 -6.329 40.308 -6.329 Q43.971 -6.329 46.545 -8.898 Z M122.705 -8.898 Q125.278 -11.467 125.278 -15.13 Q125.278 -18.795 122.71 -21.369 Q120.143 -23.942 116.477 -23.942 Q112.814 -23.942 110.239 -21.374 Q107.665 -18.805 107.665 -15.141 Q107.665 -11.476 110.234 -8.903 Q112.802 -6.329 116.468 -6.329 Q120.131 -6.329 122.705 -8.898 Z M19.474 -20.097 H27.55 Q28.925 -23.67 32.542 -26.1 Q36.157 -28.532 40.312 -28.532 Q44.468 -28.532 47.898 -26.287 Q51.327 -24.042 53.2 -20.097 H103.755 Q105.085 -23.546 108.702 -26.039 Q112.317 -28.532 116.472 -28.532 Q120.628 -28.532 124.058 -26.224 Q127.487 -23.918 129.36 -20.097 H135.326 V-39.447 H19.474 V-20.097 Z"/></g><g id="Ultralight-L" transform="matrix(1 0 0 1 491.205 1556)"><path d="M32.734 -8.751 Q29.186 -12.265 29.186 -17.331 H16.931 V-67.964 Q16.931 -69.647 18.105 -70.821 Q19.279 -71.995 20.963 -71.995 H104.329 L137.869 -41.035 V-17.331 H128.194 Q128.194 -12.265 124.677 -8.751 Q121.16 -5.237 116.09 -5.237 Q111.021 -5.237 107.513 -8.751 Q104.006 -12.265 104.006 -17.331 H53.374 Q53.374 -12.332 49.817 -8.785 Q46.259 -5.237 41.27 -5.237 Q36.281 -5.237 32.734 -8.751 Z M90.461 -43.292 H130.129 L103.039 -68.447 H90.461 V-43.292 Z M55.47 -43.292 H86.914 V-68.447 H55.47 V-43.292 Z M20.479 -43.292 H51.922 V-68.447 H20.479 V-43.292 Z M47.327 -11.278 Q49.826 -13.771 49.826 -17.325 Q49.826 -20.879 47.333 -23.378 Q44.84 -25.877 41.286 -25.877 Q37.733 -25.877 35.233 -23.385 Q32.734 -20.892 32.734 -17.338 Q32.734 -13.784 35.227 -11.284 Q37.72 -8.785 41.274 -8.785 Q44.828 -8.785 47.327 -11.278 Z M122.147 -11.278 Q124.646 -13.771 124.646 -17.325 Q124.646 -20.879 122.153 -23.378 Q119.66 -25.877 116.106 -25.877 Q112.553 -25.877 110.053 -23.385 Q107.554 -20.892 107.554 -17.338 Q107.554 -13.784 110.047 -11.284 Q112.54 -8.785 116.094 -8.785 Q119.648 -8.785 122.147 -11.278 Z M20.479 -20.879 H29.186 Q30.154 -24.265 33.621 -26.845 Q37.087 -29.425 41.28 -29.425 Q45.473 -29.425 48.697 -27.087 Q51.922 -24.749 53.535 -20.879 H104.066 Q104.974 -24.104 108.441 -26.764 Q111.907 -29.425 116.1 -29.425 Q120.293 -29.425 123.517 -27.006 Q126.743 -24.587 128.355 -20.879 H134.321 V-39.745 H20.479 V-20.879 Z"/></g><g id="Bold-M" transform="matrix(1 0 0 1 2281.8 1126)"><path d="M21.812 -3.417 Q17.875 -6.605 16.5 -11.355 H2.125 V-60.23 Q2.125 -65.954 6.201 -70.029 Q10.276 -74.105 16 -74.105 H85.625 L117.875 -41.73 V-11.355 H103.5 Q102.125 -6.605 98.188 -3.417 Q94.25 -0.23 89.062 -0.23 Q83.875 -0.23 79.938 -3.417 Q76 -6.605 74.625 -11.355 H45.375 Q44 -6.605 40.125 -3.417 Q36.25 -0.23 31 -0.23 Q25.75 -0.23 21.812 -3.417 Z M74 -45.23 H91.875 L78.875 -58.355 H74 V-45.23 Z M46 -45.23 H64 V-58.355 H46 V-45.23 Z M17.875 -45.23 H36 V-58.355 H17.875 V-45.23 Z M35.438 -10.792 Q37.25 -12.605 37.25 -15.23 Q37.25 -17.855 35.438 -19.667 Q33.625 -21.48 31 -21.48 Q28.375 -21.48 26.562 -19.667 Q24.75 -17.855 24.75 -15.23 Q24.75 -12.605 26.562 -10.792 Q28.375 -8.98 31 -8.98 Q33.625 -8.98 35.438 -10.792 Z M93.438 -10.792 Q95.25 -12.605 95.25 -15.23 Q95.25 -17.855 93.438 -19.667 Q91.625 -21.48 89 -21.48 Q86.375 -21.48 84.562 -19.667 Q82.75 -17.855 82.75 -15.23 Q82.75 -12.605 84.562 -10.792 Q86.375 -8.98 89 -8.98 Q91.625 -8.98 93.438 -10.792 Z M17.875 -25.23 H20 Q22.125 -27.48 24.875 -28.855 Q27.625 -30.23 31 -30.23 Q34.375 -30.23 37.125 -28.855 Q39.875 -27.48 42 -25.23 H78 Q80.125 -27.48 82.875 -28.855 Q85.625 -30.23 89 -30.23 Q92.375 -30.23 95.125 -28.855 Q97.875 -27.48 100 -25.23 H102.125 V-35.23 H17.875 V-25.23 Z"/></g><g id="Semibold-M" transform="matrix(1 0 0 1 1985.97 1126)"><path d="M20.753 -3.934 Q16.625 -7.637 15.848 -13.04 H3.375 V-60.23 Q3.375 -65.259 6.956 -68.84 Q10.536 -72.42 15.565 -72.42 H85.354 L116.625 -41.077 V-13.04 H104.153 Q103.375 -7.637 99.248 -3.934 Q95.12 -0.23 89.47 -0.23 Q83.821 -0.23 79.692 -3.934 Q75.565 -7.637 74.787 -13.04 H45.212 Q44.435 -7.637 40.343 -3.934 Q36.25 -0.23 30.565 -0.23 Q24.88 -0.23 20.753 -3.934 Z M74.435 -45.23 H93.234 L79.364 -59.17 H74.435 V-45.23 Z M45.565 -45.23 H64.435 V-59.17 H45.565 V-45.23 Z M16.625 -45.23 H35.565 V-59.17 H16.625 V-45.23 Z M35.002 -10.792 Q36.815 -12.605 36.815 -15.23 Q36.815 -17.855 35.002 -19.667 Q33.19 -21.48 30.565 -21.48 Q27.94 -21.48 26.128 -19.667 Q24.315 -17.855 24.315 -15.23 Q24.315 -12.605 26.128 -10.792 Q27.94 -8.98 30.565 -8.98 Q33.19 -8.98 35.002 -10.792 Z M93.873 -10.792 Q95.685 -12.605 95.685 -15.23 Q95.685 -17.855 93.873 -19.667 Q92.06 -21.48 89.435 -21.48 Q86.81 -21.48 84.998 -19.667 Q83.185 -17.855 83.185 -15.23 Q83.185 -12.605 84.998 -10.792 Q86.81 -8.98 89.435 -8.98 Q92.06 -8.98 93.873 -10.792 Z M16.625 -25.23 H19.565 Q21.69 -27.48 24.44 -28.855 Q27.19 -30.23 30.565 -30.23 Q33.94 -30.23 36.69 -28.855 Q39.44 -27.48 41.565 -25.23 H78.435 Q80.56 -27.48 83.31 -28.855 Q86.06 -30.23 89.435 -30.23 Q92.81 -30.23 95.56 -28.855 Q98.31 -27.48 100.435 -25.23 H103.375 V-35.23 H16.625 V-25.23 Z"/></g><g id="Medium-M" transform="matrix(1 0 0 1 1689.91 1126)"><path d="M19.957 -4.321 Q15.688 -8.412 15.359 -14.304 H4.312 V-60.23 Q4.312 -64.737 7.522 -67.947 Q10.732 -71.156 15.239 -71.156 H85.15 L115.688 -40.589 V-14.304 H104.641 Q104.312 -8.412 100.043 -4.321 Q95.771 -0.23 89.776 -0.23 Q83.78 -0.23 79.51 -4.321 Q75.239 -8.412 74.91 -14.304 H45.09 Q44.761 -8.412 40.505 -4.321 Q36.25 -0.23 30.239 -0.23 Q24.229 -0.23 19.957 -4.321 Z M74.761 -45.23 H94.252 L79.731 -59.781 H74.761 V-45.23 Z M45.239 -45.23 H64.761 V-59.781 H45.239 V-45.23 Z M15.688 -45.23 H35.239 V-59.781 H15.688 V-45.23 Z M34.676 -10.792 Q36.489 -12.605 36.489 -15.23 Q36.489 -17.855 34.676 -19.667 Q32.864 -21.48 30.239 -21.48 Q27.614 -21.48 25.801 -19.667 Q23.989 -17.855 23.989 -15.23 Q23.989 -12.605 25.801 -10.792 Q27.614 -8.98 30.239 -8.98 Q32.864 -8.98 34.676 -10.792 Z M94.199 -10.792 Q96.011 -12.605 96.011 -15.23 Q96.011 -17.855 94.199 -19.667 Q92.386 -21.48 89.761 -21.48 Q87.136 -21.48 85.324 -19.667 Q83.511 -17.855 83.511 -15.23 Q83.511 -12.605 85.324 -10.792 Q87.136 -8.98 89.761 -8.98 Q92.386 -8.98 94.199 -10.792 Z M15.688 -25.23 H19.239 Q21.364 -27.48 24.114 -28.855 Q26.864 -30.23 30.239 -30.23 Q33.614 -30.23 36.364 -28.855 Q39.114 -27.48 41.239 -25.23 H78.761 Q80.886 -27.48 83.636 -28.855 Q86.386 -30.23 89.761 -30.23 Q93.136 -30.23 95.886 -28.855 Q98.636 -27.48 100.761 -25.23 H104.312 V-35.23 H15.688 V-25.23 Z"/></g><g id="Regular-M" transform="matrix(1 0 0 1 1394.06 1126)"><path d="M19.375 -4.605 Q15 -8.98 15 -15.23 H5 V-60.23 Q5 -64.355 7.938 -67.292 Q10.875 -70.23 15 -70.23 H85 L115 -40.23 V-15.23 H105 Q105 -8.98 100.625 -4.605 Q96.25 -0.23 90 -0.23 Q83.75 -0.23 79.375 -4.605 Q75 -8.98 75 -15.23 H45 Q45 -8.98 40.625 -4.605 Q36.25 -0.23 30 -0.23 Q23.75 -0.23 19.375 -4.605 Z M75 -45.23 H95 L80 -60.23 H75 V-45.23 Z M45 -45.23 H65 V-60.23 H45 V-45.23 Z M15 -45.23 H35 V-60.23 H15 V-45.23 Z M34.438 -10.792 Q36.25 -12.605 36.25 -15.23 Q36.25 -17.855 34.438 -19.667 Q32.625 -21.48 30 -21.48 Q27.375 -21.48 25.562 -19.667 Q23.75 -17.855 23.75 -15.23 Q23.75 -12.605 25.562 -10.792 Q27.375 -8.98 30 -8.98 Q32.625 -8.98 34.438 -10.792 Z M94.438 -10.792 Q96.25 -12.605 96.25 -15.23 Q96.25 -17.855 94.438 -19.667 Q92.625 -21.48 90 -21.48 Q87.375 -21.48 85.562 -19.667 Q83.75 -17.855 83.75 -15.23 Q83.75 -12.605 85.562 -10.792 Q87.375 -8.98 90 -8.98 Q92.625 -8.98 94.438 -10.792 Z M15 -25.23 H19 Q21.125 -27.48 23.875 -28.855 Q26.625 -30.23 30 -30.23 Q33.375 -30.23 36.125 -28.855 Q38.875 -27.48 41 -25.23 H79 Q81.125 -27.48 83.875 -28.855 Q86.625 -30.23 90 -30.23 Q93.375 -30.23 96.125 -28.855 Q98.875 -27.48 101 -25.23 H105 V-35.23 H15 V-25.23 Z"/></g><g id="Light-M" transform="matrix(1 0 0 1 1098.18 1126)"><path d="M21.731 -8.535 Q17.933 -12.321 17.933 -17.73 H8.125 V-60.23 Q8.125 -63.324 10.329 -65.526 Q12.531 -67.73 15.625 -67.73 H83.317 L111.875 -39.941 V-17.73 H102.836 Q102.836 -12.321 99.05 -8.535 Q95.264 -4.75 89.856 -4.75 Q84.448 -4.75 80.661 -8.535 Q76.875 -12.321 76.875 -17.73 H43.894 Q43.894 -12.346 40.096 -8.547 Q36.297 -4.75 30.914 -4.75 Q25.529 -4.75 21.731 -8.535 Z M73.125 -43.787 H96.779 L79.76 -60.23 H73.125 V-43.787 Z M44.375 -43.787 H65.625 V-60.23 H44.375 V-43.787 Z M15.625 -43.787 H36.875 V-60.23 H15.625 V-43.787 Z M35.351 -13.292 Q37.164 -15.105 37.164 -17.73 Q37.164 -20.355 35.351 -22.167 Q33.539 -23.98 30.914 -23.98 Q28.289 -23.98 26.476 -22.167 Q24.664 -20.355 24.664 -17.73 Q24.664 -15.105 26.476 -13.292 Q28.289 -11.48 30.914 -11.48 Q33.539 -11.48 35.351 -13.292 Z M94.294 -13.292 Q96.106 -15.105 96.106 -17.73 Q96.106 -20.355 94.294 -22.167 Q92.481 -23.98 89.856 -23.98 Q87.231 -23.98 85.419 -22.167 Q83.606 -20.355 83.606 -17.73 Q83.606 -15.105 85.419 -13.292 Q87.231 -11.48 89.856 -11.48 Q92.481 -11.48 94.294 -13.292 Z M15.625 -25.23 H20.586 Q22.183 -27.48 24.861 -29.095 Q27.539 -30.711 30.914 -30.711 Q34.289 -30.711 36.894 -29.167 Q39.5 -27.624 41.24 -25.23 H79.529 Q81.125 -27.48 83.802 -29.095 Q86.481 -30.711 89.856 -30.711 Q93.231 -30.711 95.836 -29.167 Q98.442 -27.624 100.183 -25.23 H104.375 V-36.287 H15.625 V-25.23 Z"/></g><g id="Thin-M" transform="matrix(1 0 0 1 802.565 1126)"><path d="M24.086 -12.465 Q20.865 -15.662 20.865 -20.23 H11.25 V-60.23 Q11.25 -62.292 12.719 -63.761 Q14.188 -65.23 16.25 -65.23 H81.635 L108.75 -39.652 V-20.23 H100.672 Q100.672 -15.662 97.476 -12.465 Q94.279 -9.269 89.711 -9.269 Q85.144 -9.269 81.948 -12.465 Q78.75 -15.662 78.75 -20.23 H42.789 Q42.789 -15.711 39.568 -12.49 Q36.346 -9.269 31.828 -9.269 Q27.308 -9.269 24.086 -12.465 Z M71.25 -42.345 H98.558 L79.519 -60.23 H71.25 V-42.345 Z M43.75 -42.345 H66.25 V-60.23 H43.75 V-42.345 Z M16.25 -42.345 H38.75 V-60.23 H16.25 V-42.345 Z M36.265 -15.792 Q38.078 -17.605 38.078 -20.23 Q38.078 -22.855 36.265 -24.667 Q34.453 -26.48 31.828 -26.48 Q29.203 -26.48 27.39 -24.667 Q25.578 -22.855 25.578 -20.23 Q25.578 -17.605 27.39 -15.792 Q29.203 -13.98 31.828 -13.98 Q34.453 -13.98 36.265 -15.792 Z M94.149 -15.792 Q95.961 -17.605 95.961 -20.23 Q95.961 -22.855 94.149 -24.667 Q92.336 -26.48 89.711 -26.48 Q87.086 -26.48 85.274 -24.667 Q83.461 -22.855 83.461 -20.23 Q83.461 -17.605 85.274 -15.792 Q87.086 -13.98 89.711 -13.98 Q92.336 -13.98 94.149 -15.792 Z M16.25 -25.23 H22.172 Q23.24 -27.48 25.846 -29.336 Q28.453 -31.191 31.828 -31.191 Q35.203 -31.191 37.664 -29.48 Q40.125 -27.769 41.481 -25.23 H80.058 Q81.125 -27.48 83.731 -29.336 Q86.336 -31.191 89.711 -31.191 Q93.086 -31.191 95.547 -29.48 Q98.01 -27.769 99.365 -25.23 H103.75 V-37.345 H16.25 V-25.23 Z"/></g><g id="Ultralight-M" transform="matrix(1 0 0 1 506.415 1126)"><path d="M25.5 -14.824 Q22.625 -17.667 22.625 -21.73 H13.125 V-60.23 Q13.125 -61.674 14.152 -62.702 Q15.181 -63.73 16.625 -63.73 H80.625 L106.875 -39.48 V-21.73 H99.375 Q99.375 -17.667 96.531 -14.824 Q93.688 -11.98 89.625 -11.98 Q85.562 -11.98 82.719 -14.824 Q79.875 -17.667 79.875 -21.73 H42.125 Q42.125 -17.73 39.25 -14.855 Q36.375 -11.98 32.375 -11.98 Q28.375 -11.98 25.5 -14.824 Z M70.125 -41.48 H99.625 L79.375 -60.23 H70.125 V-41.48 Z M43.375 -41.48 H66.625 V-60.23 H43.375 V-41.48 Z M16.625 -41.48 H39.875 V-60.23 H16.625 V-41.48 Z M36.812 -17.292 Q38.625 -19.105 38.625 -21.73 Q38.625 -24.355 36.812 -26.167 Q35 -27.98 32.375 -27.98 Q29.75 -27.98 27.938 -26.167 Q26.125 -24.355 26.125 -21.73 Q26.125 -19.105 27.938 -17.292 Q29.75 -15.48 32.375 -15.48 Q35 -15.48 36.812 -17.292 Z M94.062 -17.292 Q95.875 -19.105 95.875 -21.73 Q95.875 -24.355 94.062 -26.167 Q92.25 -27.98 89.625 -27.98 Q87 -27.98 85.188 -26.167 Q83.375 -24.355 83.375 -21.73 Q83.375 -19.105 85.188 -17.292 Q87 -15.48 89.625 -15.48 Q92.25 -15.48 94.062 -17.292 Z M16.625 -25.23 H23.125 Q23.875 -27.48 26.438 -29.48 Q29 -31.48 32.375 -31.48 Q35.75 -31.48 38.125 -29.667 Q40.5 -27.855 41.625 -25.23 H80.375 Q81.125 -27.48 83.688 -29.48 Q86.25 -31.48 89.625 -31.48 Q93 -31.48 95.375 -29.667 Q97.75 -27.855 98.875 -25.23 H103.375 V-37.98 H16.625 V-25.23 Z"/></g><g id="Bold-S" transform="matrix(1 0 0 1 2294.23 696)"><path d="M19.577 -9.341 Q16.47 -11.856 15.386 -15.604 H2.466 V-54.166 Q2.466 -58.357 5.45 -61.34 Q8.433 -64.324 12.624 -64.324 H66.769 L92.214 -38.78 V-15.604 H79.294 Q78.21 -11.856 75.103 -9.341 Q71.996 -6.826 67.903 -6.826 Q63.81 -6.826 60.704 -9.341 Q57.597 -11.856 56.512 -15.604 H38.168 Q37.083 -11.856 34.026 -9.341 Q30.968 -6.826 26.826 -6.826 Q22.684 -6.826 19.577 -9.341 Z M53.652 -42.331 H72.687 L62.43 -52.687 H53.652 V-42.331 Z M33.927 -42.331 H46.551 V-52.687 H33.927 V-42.331 Z M14.103 -42.331 H26.826 V-52.687 H14.103 V-42.331 Z M30.179 -15.297 Q31.56 -16.666 31.56 -18.65 Q31.56 -20.633 30.19 -22.014 Q28.821 -23.395 26.837 -23.395 Q24.854 -23.395 23.473 -22.025 Q22.092 -20.656 22.092 -18.672 Q22.092 -16.688 23.462 -15.308 Q24.831 -13.927 26.815 -13.927 Q28.799 -13.927 30.179 -15.297 Z M71.207 -15.297 Q72.588 -16.666 72.588 -18.65 Q72.588 -20.633 71.218 -22.014 Q69.849 -23.395 67.865 -23.395 Q65.882 -23.395 64.501 -22.025 Q63.12 -20.656 63.12 -18.672 Q63.12 -16.688 64.49 -15.308 Q65.859 -13.927 67.843 -13.927 Q69.827 -13.927 71.207 -15.297 Z M14.103 -25.762 H17.358 Q19.133 -28.03 21.55 -29.263 Q23.966 -30.496 26.826 -30.496 Q29.686 -30.496 32.152 -29.263 Q34.617 -28.03 36.294 -25.762 H58.386 Q60.063 -28.03 62.528 -29.263 Q64.994 -30.496 67.854 -30.496 Q70.714 -30.496 73.13 -29.263 Q75.547 -28.03 77.322 -25.762 H80.577 V-35.23 H14.103 V-25.762 Z"/></g><g id="Semibold-S" transform="matrix(1 0 0 1 1998.1 696)"><path d="M18.741 -9.748 Q15.484 -12.671 14.871 -16.933 H3.452 V-54.166 Q3.452 -57.808 6.046 -60.402 Q8.639 -62.995 12.281 -62.995 H66.555 L91.228 -38.266 V-16.933 H79.809 Q79.196 -12.671 75.939 -9.748 Q72.683 -6.826 68.225 -6.826 Q63.768 -6.826 60.51 -9.748 Q57.254 -12.671 56.64 -16.933 H38.04 Q37.426 -12.671 34.197 -9.748 Q30.968 -6.826 26.483 -6.826 Q21.997 -6.826 18.741 -9.748 Z M53.995 -42.331 H73.759 L62.815 -53.33 H53.995 V-42.331 Z M33.584 -42.331 H46.894 V-53.33 H33.584 V-42.331 Z M13.117 -42.331 H26.483 V-53.33 H13.117 V-42.331 Z M29.836 -15.297 Q31.217 -16.666 31.217 -18.65 Q31.217 -20.633 29.847 -22.014 Q28.478 -23.395 26.494 -23.395 Q24.51 -23.395 23.13 -22.025 Q21.749 -20.656 21.749 -18.672 Q21.749 -16.688 23.119 -15.308 Q24.489 -13.927 26.472 -13.927 Q28.455 -13.927 29.836 -15.297 Z M71.55 -15.297 Q72.931 -16.666 72.931 -18.65 Q72.931 -20.633 71.561 -22.014 Q70.191 -23.395 68.208 -23.395 Q66.225 -23.395 64.844 -22.025 Q63.463 -20.656 63.463 -18.672 Q63.463 -16.688 64.833 -15.308 Q66.202 -13.927 68.186 -13.927 Q70.17 -13.927 71.55 -15.297 Z M13.117 -25.762 H17.015 Q18.79 -28.03 21.206 -29.263 Q23.623 -30.496 26.483 -30.496 Q29.343 -30.496 31.809 -29.263 Q34.274 -28.03 35.951 -25.762 H58.729 Q60.406 -28.03 62.871 -29.263 Q65.337 -30.496 68.197 -30.496 Q71.057 -30.496 73.474 -29.263 Q75.89 -28.03 77.665 -25.762 H81.563 V-35.23 H13.117 V-25.762 Z"/></g><g id="Medium-S" transform="matrix(1 0 0 1 1701.85 696)"><path d="M18.113 -10.054 Q14.744 -13.282 14.485 -17.93 H4.192 V-54.166 Q4.192 -57.397 6.492 -59.698 Q8.793 -61.998 12.023 -61.998 H66.394 L90.488 -37.88 V-17.93 H80.195 Q79.936 -13.282 76.567 -10.054 Q73.197 -6.826 68.466 -6.826 Q63.735 -6.826 60.366 -10.054 Q56.996 -13.282 56.737 -17.93 H37.943 Q37.684 -13.282 34.325 -10.054 Q30.968 -6.826 26.225 -6.826 Q21.483 -6.826 18.113 -10.054 Z M54.253 -42.331 H74.562 L63.105 -53.812 H54.253 V-42.331 Z M33.326 -42.331 H47.152 V-53.812 H33.326 V-42.331 Z M12.377 -42.331 H26.225 V-53.812 H12.377 V-42.331 Z M29.579 -15.297 Q30.959 -16.666 30.959 -18.65 Q30.959 -20.633 29.59 -22.014 Q28.221 -23.395 26.237 -23.395 Q24.253 -23.395 22.872 -22.025 Q21.491 -20.656 21.491 -18.672 Q21.491 -16.688 22.861 -15.308 Q24.231 -13.927 26.215 -13.927 Q28.198 -13.927 29.579 -15.297 Z M71.808 -15.297 Q73.189 -16.666 73.189 -18.65 Q73.189 -20.633 71.819 -22.014 Q70.449 -23.395 68.465 -23.395 Q66.482 -23.395 65.101 -22.025 Q63.721 -20.656 63.721 -18.672 Q63.721 -16.688 65.09 -15.308 Q66.459 -13.927 68.443 -13.927 Q70.427 -13.927 71.808 -15.297 Z M12.377 -25.762 H16.757 Q18.533 -28.03 20.949 -29.263 Q23.365 -30.496 26.225 -30.496 Q29.085 -30.496 31.551 -29.263 Q34.017 -28.03 35.693 -25.762 H58.987 Q60.663 -28.03 63.129 -29.263 Q65.595 -30.496 68.455 -30.496 Q71.315 -30.496 73.731 -29.263 Q76.147 -28.03 77.923 -25.762 H82.303 V-35.23 H12.377 V-25.762 Z"/></g><g id="Regular-S" transform="matrix(1 0 0 1 1405.73 696)"><path d="M17.654 -10.278 Q14.202 -13.73 14.202 -18.661 H4.734 V-54.166 Q4.734 -57.095 6.82 -59.181 Q8.906 -61.267 11.835 -61.267 H66.276 L89.946 -37.597 V-18.661 H80.478 Q80.478 -13.73 77.026 -10.278 Q73.574 -6.826 68.643 -6.826 Q63.712 -6.826 60.26 -10.278 Q56.808 -13.73 56.808 -18.661 H37.872 Q37.872 -13.73 34.42 -10.278 Q30.968 -6.826 26.037 -6.826 Q21.106 -6.826 17.654 -10.278 Z M54.441 -42.331 H75.152 L63.317 -54.166 H54.441 V-42.331 Z M33.138 -42.331 H47.34 V-54.166 H33.138 V-42.331 Z M11.835 -42.331 H26.037 V-54.166 H11.835 V-42.331 Z M29.39 -15.297 Q30.771 -16.666 30.771 -18.65 Q30.771 -20.633 29.401 -22.014 Q28.032 -23.395 26.048 -23.395 Q24.065 -23.395 22.684 -22.025 Q21.303 -20.656 21.303 -18.672 Q21.303 -16.688 22.673 -15.308 Q24.042 -13.927 26.026 -13.927 Q28.01 -13.927 29.39 -15.297 Z M71.996 -15.297 Q73.377 -16.666 73.377 -18.65 Q73.377 -20.633 72.007 -22.014 Q70.638 -23.395 68.654 -23.395 Q66.671 -23.395 65.29 -22.025 Q63.909 -20.656 63.909 -18.672 Q63.909 -16.688 65.279 -15.308 Q66.648 -13.927 68.632 -13.927 Q70.615 -13.927 71.996 -15.297 Z M11.835 -25.762 H16.569 Q18.344 -28.03 20.761 -29.263 Q23.177 -30.496 26.037 -30.496 Q28.897 -30.496 31.363 -29.263 Q33.828 -28.03 35.505 -25.762 H59.175 Q60.852 -28.03 63.317 -29.263 Q65.783 -30.496 68.643 -30.496 Q71.503 -30.496 73.919 -29.263 Q76.336 -28.03 78.111 -25.762 H82.845 V-35.23 H11.835 V-25.762 Z"/></g><g id="Light-S" transform="matrix(1 0 0 1 1109.75 696)"><path d="M19.513 -13.379 Q16.516 -16.366 16.516 -20.633 H7.2 V-54.166 Q7.2 -56.282 8.707 -57.788 Q10.213 -59.294 12.328 -59.294 H64.949 L87.48 -37.369 V-20.633 H78.771 Q78.771 -16.366 75.783 -13.379 Q72.796 -10.392 68.53 -10.392 Q64.262 -10.392 61.275 -13.379 Q58.287 -16.366 58.287 -20.633 H36.999 Q36.999 -16.386 34.003 -13.389 Q31.006 -10.392 26.758 -10.392 Q22.509 -10.392 19.513 -13.379 Z M52.962 -41.193 H76.556 L63.128 -54.166 H52.962 V-41.193 Z M32.645 -41.193 H47.833 V-54.166 H32.645 V-41.193 Z M12.328 -41.193 H27.516 V-54.166 H12.328 V-41.193 Z M30.111 -17.269 Q31.492 -18.639 31.492 -20.623 Q31.492 -22.606 30.122 -23.987 Q28.752 -25.367 26.769 -25.367 Q24.785 -25.367 23.405 -23.998 Q22.024 -22.629 22.024 -20.644 Q22.024 -18.661 23.394 -17.28 Q24.763 -15.899 26.747 -15.899 Q28.73 -15.899 30.111 -17.269 Z M71.883 -17.269 Q73.264 -18.639 73.264 -20.623 Q73.264 -22.606 71.894 -23.987 Q70.524 -25.367 68.54 -25.367 Q66.557 -25.367 65.176 -23.998 Q63.796 -22.629 63.796 -20.644 Q63.796 -18.661 65.164 -17.28 Q66.534 -15.899 68.518 -15.899 Q70.502 -15.899 71.883 -17.269 Z M12.328 -25.762 H17.821 Q19.179 -28.03 21.539 -29.453 Q23.898 -30.876 26.758 -30.876 Q29.618 -30.876 31.969 -29.51 Q34.322 -28.144 35.694 -25.762 H59.592 Q60.852 -28.03 63.26 -29.453 Q65.669 -30.876 68.53 -30.876 Q71.39 -30.876 73.692 -29.51 Q75.995 -28.144 77.466 -25.762 H82.352 V-36.064 H12.328 V-25.762 Z"/></g><g id="Thin-S" transform="matrix(1 0 0 1 814.015 696)"><path d="M21.371 -16.479 Q18.829 -19.002 18.829 -22.606 H9.665 V-54.166 Q9.665 -55.468 10.592 -56.395 Q11.519 -57.322 12.821 -57.322 H63.621 L85.015 -37.141 V-22.606 H77.064 Q77.064 -19.002 74.542 -16.479 Q72.019 -13.958 68.415 -13.958 Q64.811 -13.958 62.29 -16.479 Q59.767 -19.002 59.767 -22.606 H36.127 Q36.127 -19.041 33.586 -16.499 Q31.044 -13.958 27.479 -13.958 Q23.913 -13.958 21.371 -16.479 Z M51.482 -40.055 H77.959 L62.938 -54.166 H51.482 V-40.055 Z M32.152 -40.055 H48.326 V-54.166 H32.152 V-40.055 Z M12.821 -40.055 H28.996 V-54.166 H12.821 V-40.055 Z M30.832 -19.242 Q32.213 -20.611 32.213 -22.595 Q32.213 -24.578 30.843 -25.959 Q29.473 -27.34 27.49 -27.34 Q25.506 -27.34 24.126 -25.97 Q22.745 -24.601 22.745 -22.617 Q22.745 -20.633 24.114 -19.253 Q25.484 -17.872 27.467 -17.872 Q29.451 -17.872 30.832 -19.242 Z M71.768 -19.242 Q73.149 -20.611 73.149 -22.595 Q73.149 -24.578 71.779 -25.959 Q70.41 -27.34 68.426 -27.34 Q66.443 -27.34 65.062 -25.97 Q63.681 -24.601 63.681 -22.617 Q63.681 -20.633 65.051 -19.253 Q66.421 -17.872 68.404 -17.872 Q70.388 -17.872 71.768 -19.242 Z M12.821 -25.762 H19.072 Q20.013 -28.03 22.316 -29.643 Q24.619 -31.254 27.479 -31.254 Q30.339 -31.254 32.577 -29.756 Q34.815 -28.258 35.885 -25.762 H60.009 Q60.852 -28.03 63.204 -29.643 Q65.555 -31.254 68.415 -31.254 Q71.275 -31.254 73.464 -29.756 Q75.653 -28.258 76.821 -25.762 H81.859 V-36.899 H12.821 V-25.762 Z"/></g><g id="Ultralight-S" transform="matrix(1 0 0 1 517.792 696)"><path d="M22.486 -18.34 Q20.218 -20.584 20.218 -23.789 H11.145 V-54.166 Q11.145 -54.98 11.725 -55.56 Q12.303 -56.138 13.117 -56.138 H62.824 L83.535 -37.005 V-23.789 H76.04 Q76.04 -20.584 73.796 -18.34 Q71.552 -16.097 68.347 -16.097 Q65.142 -16.097 62.898 -18.34 Q60.654 -20.584 60.654 -23.789 H35.604 Q35.604 -20.633 33.335 -18.365 Q31.067 -16.097 27.911 -16.097 Q24.755 -16.097 22.486 -18.34 Z M50.595 -39.372 H78.801 L62.824 -54.166 H50.595 V-39.372 Z M31.856 -39.372 H48.622 V-54.166 H31.856 V-39.372 Z M13.117 -39.372 H29.883 V-54.166 H13.117 V-39.372 Z M31.264 -20.425 Q32.645 -21.794 32.645 -23.779 Q32.645 -25.762 31.275 -27.143 Q29.906 -28.523 27.922 -28.523 Q25.938 -28.523 24.558 -27.154 Q23.177 -25.785 23.177 -23.8 Q23.177 -21.817 24.547 -20.436 Q25.916 -19.055 27.9 -19.055 Q29.883 -19.055 31.264 -20.425 Z M71.7 -20.425 Q73.081 -21.794 73.081 -23.779 Q73.081 -25.762 71.711 -27.143 Q70.342 -28.523 68.358 -28.523 Q66.375 -28.523 64.994 -27.154 Q63.613 -25.785 63.613 -23.8 Q63.613 -21.817 64.983 -20.436 Q66.352 -19.055 68.336 -19.055 Q70.32 -19.055 71.7 -20.425 Z M13.117 -25.762 H19.824 Q20.514 -28.03 22.782 -29.756 Q25.051 -31.482 27.911 -31.482 Q30.771 -31.482 32.941 -29.904 Q35.111 -28.326 35.998 -25.762 H60.26 Q60.852 -28.03 63.169 -29.756 Q65.487 -31.482 68.347 -31.482 Q71.207 -31.482 73.328 -29.904 Q75.448 -28.326 76.434 -25.762 H81.563 V-37.4 H13.117 V-25.762 Z"/></g></g></svg>