<svg width="114" height="28" viewBox="0 0 114 28" fill="none" xmlns="http://www.w3.org/2000/svg">
<path d="M0 23.5V21.5H12V23.5H0ZM5.65 18.65L0 13L2.1 10.85L7.8 16.5L5.65 18.65ZM12 12.3L6.35 6.6L8.5 4.5L14.15 10.15L12 12.3ZM16.6 22.5L3.55 9.45L4.95 8.05L18 21.1L16.6 22.5Z" fill="#00234B"/>
<path d="M27.1833 21V7.9043H29.869V18.7735H35.5158V21H27.1833ZM39.1611 21V7.9043H47.9294V10.1308H41.8467V13.2916H47.4656V15.4801H41.8467V18.7735H47.9468V21H39.1611ZM57.6981 21.1758C56.4751 21.1758 55.4013 20.9041 54.4765 20.3608C53.5517 19.8174 52.8305 19.0441 52.313 18.0408C51.7955 17.0375 51.5368 15.8474 51.5368 14.4704C51.5368 13.0533 51.8058 11.8423 52.3439 10.8374C52.882 9.8325 53.6115 9.06313 54.5325 8.52929C55.4534 7.99544 56.4893 7.72852 57.6401 7.72852C58.3758 7.72852 59.0614 7.83501 59.6968 8.048C60.3321 8.26099 60.8982 8.56424 61.395 8.95776C61.8917 9.35127 62.2969 9.81657 62.6103 10.3536C62.9238 10.8907 63.1265 11.482 63.2184 12.1274H60.4895C60.399 11.8132 60.2701 11.5317 60.1028 11.2832C59.9356 11.0346 59.7329 10.8227 59.4949 10.6473C59.2569 10.472 58.9865 10.3387 58.6836 10.2475C58.3807 10.1563 58.0469 10.1108 57.6821 10.1108C57.0095 10.1108 56.415 10.2785 55.8988 10.6138C55.3826 10.9492 54.9803 11.4397 54.6919 12.0852C54.4034 12.7307 54.2592 13.5163 54.2592 14.442C54.2592 15.3685 54.4017 16.1555 54.6868 16.8028C54.9718 17.4502 55.3728 17.9438 55.8896 18.2837C56.4065 18.6236 57.0156 18.7935 57.7171 18.7935C58.3478 18.7935 58.8898 18.6787 59.3431 18.4491C59.7965 18.2195 60.1435 17.8936 60.3842 17.4715C60.6249 17.0494 60.7452 16.5518 60.7452 15.9786L61.3079 16.0611H57.9032V14.023H63.3483V15.6598C63.3483 16.8039 63.1057 17.7878 62.6207 18.6116C62.1357 19.4353 61.4682 20.0687 60.6182 20.5115C59.7682 20.9544 58.7949 21.1758 57.6981 21.1758ZM65.8862 21L70.3658 7.9043H73.8752L78.4685 21H75.4861L73.3875 14.6829C73.1321 13.867 72.8751 12.9736 72.6162 12.0027C72.3574 11.0318 72.0843 9.97384 71.7968 8.82892H72.379C72.1006 9.97923 71.8401 11.0425 71.5976 12.0188C71.3551 12.9952 71.1134 13.8832 70.8724 14.6829L68.8482 21H65.8862ZM68.685 17.9608V15.8563H75.6697V17.9608H68.685ZM81.8794 21V7.9043H84.5651V18.7735H90.2119V21H81.8794ZM96.5428 7.9043V21H93.8572V7.9043H96.5428ZM105.516 21.1905C104.468 21.1905 103.556 21.0295 102.779 20.7074C102.002 20.3853 101.397 19.9084 100.963 19.2767C100.53 18.645 100.299 17.8649 100.272 16.9362H102.883C102.917 17.3778 103.048 17.7464 103.277 18.042C103.505 18.3376 103.811 18.5591 104.192 18.7064C104.574 18.8538 105.006 18.9275 105.487 18.9275C105.965 18.9275 106.382 18.8577 106.738 18.7181C107.094 18.5786 107.371 18.3828 107.569 18.131C107.767 17.8791 107.866 17.5881 107.866 17.2581C107.866 16.9565 107.777 16.7047 107.6 16.5027C107.423 16.3008 107.167 16.1275 106.831 15.9829C106.495 15.8383 106.089 15.7094 105.61 15.5963L104.171 15.2383C103.062 14.9679 102.194 14.5441 101.565 13.9669C100.936 13.3897 100.622 12.6248 100.622 11.6722C100.622 10.8833 100.835 10.193 101.262 9.6013C101.689 9.00962 102.273 8.54956 103.015 8.22115C103.756 7.89273 104.601 7.72852 105.549 7.72852C106.518 7.72852 107.363 7.89431 108.083 8.22589C108.804 8.55748 109.366 9.01712 109.769 9.60482C110.171 10.1925 110.38 10.8696 110.394 11.6362H107.8C107.749 11.1114 107.524 10.7048 107.126 10.4163C106.727 10.1277 106.193 9.98349 105.525 9.98349C105.07 9.98349 104.682 10.0489 104.36 10.1797C104.038 10.3104 103.793 10.4904 103.625 10.7196C103.457 10.9487 103.373 11.2098 103.373 11.5029C103.373 11.8239 103.471 12.0903 103.666 12.3022C103.862 12.514 104.12 12.6865 104.44 12.8196C104.76 12.9528 105.103 13.0633 105.47 13.1512L106.652 13.4403C107.203 13.5657 107.716 13.7342 108.191 13.9457C108.667 14.1572 109.083 14.4166 109.439 14.7239C109.796 15.0312 110.073 15.3951 110.272 15.8156C110.47 16.2361 110.569 16.721 110.569 17.2703C110.569 18.0642 110.369 18.7554 109.969 19.3439C109.568 19.9323 108.991 20.3872 108.238 20.7086C107.485 21.0299 106.577 21.1905 105.516 21.1905Z" fill="#00234B"/>
</svg>
