<svg width="53" height="53" viewBox="0 0 53 53" fill="none" xmlns="http://www.w3.org/2000/svg">
<path d="M22.5952 38.4077L40.7501 20.2528L36.2962 15.7636L22.5952 29.4647L15.8941 22.7636L11.4402 27.2528L22.5952 38.4077ZM26.2011 52.4023C22.5544 52.4023 19.1397 51.7156 15.957 50.3423C12.7743 48.9689 10.0058 47.1051 7.65151 44.7508C5.2972 42.3965 3.43337 39.628 2.06002 36.4453C0.686674 33.2626 0 29.8479 0 26.2011C0 22.5544 0.686674 19.1397 2.06002 15.957C3.43337 12.7743 5.2972 10.0058 7.65151 7.65151C10.0058 5.2972 12.7743 3.43337 15.957 2.06002C19.1397 0.686674 22.5544 0 26.2011 0C29.8479 0 33.2626 0.686674 36.4453 2.06002C39.628 3.43337 42.3965 5.2972 44.7508 7.65151C47.1051 10.0058 48.9689 12.7743 50.3423 15.957C51.7156 19.1397 52.4023 22.5544 52.4023 26.2011C52.4023 29.8479 51.7156 33.2626 50.3423 36.4453C48.9689 39.628 47.1051 42.3965 44.7508 44.7508C42.3965 47.1051 39.628 48.9689 36.4453 50.3423C33.2626 51.7156 29.8479 52.4023 26.2011 52.4023Z" fill="#34C759"/>
</svg>
